<?xml version="1.0" standalone="no"?>
<!DOCTYPE svg PUBLIC "-//W3C//DTD SVG 1.0//EN" "http://www.w3.org/TR/2001/REC-SVG-20010904/DTD/svg10.dtd">
<svg width="2500" height="1000">
<model></model>
<createtime>2015年7月21日 18:58</createtime>
<lastmodified>2017年5月25日 10:57</lastmodified>
<designer></designer>
<part_params></part_params>
<pathorder></pathorder>
<tools></tools>
<desc>门板设计</desc>
<rect name-id = "w1" align-attribute = "XyMtUSMeV9wzJe/2DCIvXhQvTxboZOjsJt8uXSQcXhP1H7" style = "fill:none; stroke:Black; stroke-width:1" x = "34," y = "8," width = "1288," height = "94," rx = "0," ry = "0," />
<polyline name-id = "w2" align-attribute = "XyMtUSMeV9wzJhUkZBQfJt8uYCEgYBIjGSf1UhgzURL2DBsgUiLoTRskUxz1YuIaWBQhYA4hVScgUA3wJA32DCgeUR0vUSDoTRskUxz1YuAaZRIgWiMgXg4hVScgUA3rGe8a" style = "fill:none; stroke:Black; stroke-width:1" points = "329.353,67 329.325,73.098 329.31,79.196 329.31,85.295 329.325,91.393 329.353,97.491 329.396,103.589 329.453,109.687 329.524,115.785 329.61,121.883 329.71,127.98 329.824,134.078 329.953,140.174 330.095,146.271 330.252,152.367 330.423,158.463 330.609,164.559 330.808,170.654 331.022,176.748 331.251,182.842 331.493,188.936 331.75,195.029 332.021,201.121 332.306,207.212 332.605,213.303 332.919,219.393 333.247,225.483 333.589,231.572 333.946,237.659 334.317,243.746 334.701,249.833 335.101,255.918 335.514,262.002 336.05,269.959 336.57,277.917 337.073,285.876 337.56,293.837 338.031,301.798 338.485,309.76 338.923,317.723 339.345,325.687 339.75,333.652 340.138,341.618 340.511,349.584 340.867,357.551 341.206,365.519 341.529,373.488 341.836,381.457 342.126,389.427 342.4,397.397 342.658,405.368 342.899,413.34 343.124,421.311 343.332,429.284 343.524,437.257 343.7,445.23 343.859,453.203 344.001,461.177 344.128,469.151 344.238,477.126 344.331,485.1 344.408,493.075 344.469,501.05 344.513,509.025 344.541,517 344.513,524.975 344.469,532.95 344.408,540.925 344.331,548.9 344.238,556.875 344.128,564.849 344.001,572.823 343.859,580.797 343.7,588.771 343.524,596.744 343.332,604.717 343.124,612.689 342.899,620.661 342.658,628.633 342.4,636.604 342.126,644.574 341.836,652.544 341.529,660.513 341.206,668.482 340.867,676.45 340.511,684.417 340.138,692.384 339.75,700.349 339.345,708.314 338.923,716.278 338.485,724.242 338.031,732.204 337.56,740.165 337.073,748.125 336.57,756.085 336.05,764.043 335.514,772 335.101,778.084 334.701,784.169 334.317,790.255 333.946,796.342 333.589,802.43 333.247,808.519 332.919,814.608 332.605,820.698 332.306,826.789 332.021,832.881 331.75,838.973 331.493,845.066 331.251,851.159 331.022,857.253 330.808,863.347 330.609,869.442 330.423,875.538 330.252,881.634 330.095,887.73 329.953,893.826 329.824,899.923 329.71,906.02 329.61,912.118 329.524,918.215 329.453,924.313 329.396,930.411 329.353,936.509 329.325,942.607 329.31,948.705 329.31,954.804 329.325,960.902 329.353,967 " />
<polyline name-id = "w3" align-attribute = "XyMtUSMeV9wzJhUkZBQfJt8uYCEgYBIjGSf1UhgzURL2DBsgUiLoTRskUxz1YuMaWBQhYA4hVScgUA3xJQ32DCgeUR0vUSDoTRskUxz1YuAaZRIgWiMgXg4hVScgUA3rGe8a" style = "fill:none; stroke:Black; stroke-width:1" points = "264.36,969 264.346,965.926 264.343,962.852 264.351,959.778 264.371,956.704 264.402,953.631 264.445,950.557 264.499,947.483 264.565,944.41 264.641,941.337 264.73,938.264 264.83,935.192 264.941,932.12 265.064,929.049 265.198,925.978 265.343,922.907 265.5,919.837 265.669,916.768 265.848,913.699 266.04,910.631 266.242,907.564 266.456,904.497 266.681,901.432 266.918,898.367 267.166,895.303 267.426,892.24 267.697,889.178 267.979,886.117 268.273,883.057 268.578,879.998 268.894,876.941 269.222,873.884 269.561,870.829 269.912,867.775 270.274,864.723 270.647,861.672 271.032,858.622 271.428,855.573 271.835,852.527 272.253,849.481 272.683,846.438 273.125,843.395 273.577,840.355 274.041,837.316 274.516,834.279 275.002,831.244 275.5,828.211 276.009,825.179 276.529,822.149 277.061,819.122 277.603,816.096 278.157,813.073 278.723,810.051 279.299,807.032 279.887,804.014 280.486,800.999 281.096,797.986 281.717,794.976 282.35,791.968 282.993,788.962 283.648,785.959 284.314,782.958 284.991,779.959 285.68,776.963 286.379,773.97 287.37,770.068 288.346,766.162 289.306,762.252 290.252,758.339 291.181,754.422 292.096,750.501 292.995,746.577 293.879,742.649 294.748,738.718 295.601,734.783 296.438,730.845 297.261,726.904 298.067,722.96 298.859,719.013 299.635,715.062 300.395,711.109 301.14,707.152 301.87,703.193 302.584,699.231 303.282,695.266 303.965,691.298 304.633,687.328 305.285,683.355 305.921,679.38 306.542,675.402 307.147,671.422 307.737,667.439 308.311,663.454 308.87,659.467 309.412,655.478 309.94,651.487 310.451,647.494 310.947,643.498 311.428,639.501 311.893,635.502 312.342,631.501 312.775,627.499 313.193,623.494 313.595,619.489 313.981,615.481 314.352,611.472 314.707,607.462 315.047,603.45 315.37,599.437 315.678,595.423 315.97,591.408 316.247,587.391 316.508,583.374 316.753,579.355 316.982,575.336 317.196,571.316 317.394,567.295 317.576,563.273 317.743,559.25 317.893,555.227 318.028,551.203 318.147,547.179 318.251,543.155 318.339,539.13 318.411,535.104 318.467,531.079 318.507,527.053 318.532,523.027 318.541,519.001 318.532,514.975 318.507,510.949 318.467,506.923 318.411,502.898 318.339,498.872 318.251,494.847 318.147,490.823 318.028,486.799 317.893,482.775 317.743,478.752 317.576,474.729 317.394,470.707 317.196,466.686 316.982,462.666 316.753,458.646 316.508,454.628 316.247,450.61 315.97,446.594 315.678,442.578 315.37,438.564 315.047,434.551 314.707,430.54 314.352,426.529 313.981,422.521 313.595,418.513 313.193,414.507 312.775,410.503 312.342,406.5 311.893,402.5 311.428,398.5 310.947,394.503 310.451,390.508 309.94,386.515 309.412,382.523 308.87,378.534 308.311,374.547 307.737,370.562 307.147,366.58 306.542,362.599 305.921,358.622 305.285,354.646 304.633,350.673 303.965,346.703 303.282,342.735 302.584,338.771 301.87,334.808 301.14,330.849 300.395,326.893 299.635,322.939 298.859,318.989 298.067,315.041 297.261,311.097 296.438,307.156 295.601,303.218 294.748,299.283 293.879,295.352 292.995,291.424 292.096,287.5 291.181,283.579 290.252,279.662 289.306,275.749 288.346,271.839 287.37,267.933 286.379,264.031 285.68,261.038 284.991,258.042 284.314,255.043 283.648,252.042 282.993,249.039 282.35,246.033 281.717,243.025 281.096,240.014 280.486,237.002 279.887,233.987 279.299,230.969 278.723,227.95 278.157,224.928 277.603,221.905 277.061,218.879 276.529,215.851 276.009,212.822 275.5,209.79 275.002,206.757 274.516,203.722 274.041,200.684 273.577,197.646 273.124,194.605 272.683,191.563 272.253,188.519 271.835,185.474 271.428,182.427 271.032,179.379 270.647,176.329 270.274,173.278 269.912,170.225 269.561,167.171 269.222,164.116 268.894,161.06 268.578,158.002 268.273,154.943 267.979,151.883 267.697,148.822 267.426,145.76 267.166,142.697 266.918,139.633 266.681,136.569 266.456,133.503 266.242,130.436 266.039,127.369 265.848,124.301 265.669,121.232 265.5,118.163 265.343,115.093 265.198,112.023 265.064,108.951 264.941,105.88 264.83,102.808 264.73,99.736 264.641,96.663 264.564,93.59 264.499,90.517 264.445,87.443 264.402,84.37 264.371,81.296 264.351,78.222 264.343,75.14799 264.346,72.074 264.36,69 " />
<polyline name-id = "w4" align-attribute = "XyMtUSMeV9wzJhUkZBQfJt8uYCEgYBIjGSf1UhgzURL2DBsgUiLoTRskUxz1YuAaWBQhYA4hVScgUA3vHO8aJt80TxQpYBQtGRAnVRYpJiXsSygeUR0vUSEaUhgzURMaH9zrSr" style = "fill:none; stroke:Black; stroke-width:1" points = "171.285,47 171.177,50.152 171.095,53.305 171.038,56.458 171.006,59.612 171,62.766 171.018,65.92 171.062,69.073 171.131,72.227 171.225,75.379 171.344,78.531 171.489,81.681 171.659,84.831 171.854,87.978 172.074,91.125 172.319,94.269 172.59,97.411 172.885,100.551 173.206,103.689 173.551,106.824 173.922,109.956 174.318,113.085 174.739,116.211 175.184,119.333 175.655,122.451 176.151,125.566 176.671,128.677 177.217,131.783 177.787,134.885 178.382,137.982 179.001,141.075 179.646,144.162 180.315,147.244 181.009,150.321 181.727,153.392 182.47,156.457 183.237,159.516 184.029,162.569 184.845,165.616 185.685,168.656 186.55,171.689 187.439,174.715 188.352,177.733 189.289,180.745 190.25,183.749 191.236,186.745 192.245,189.733 193.278,192.713 194.335,195.684 195.415,198.647 196.52,201.602 197.647,204.547 198.799,207.483 199.973,210.41 201.171,213.328 202.393,216.236 203.637,219.133 204.905,222.021 206.196,224.899 207.51,227.766 208.846,230.623 210.206,233.469 211.588,236.304 212.993,239.128 214.42,241.94 216.306,245.621 218.163,249.317 219.992,253.026 221.792,256.75 223.564,260.487 225.307,264.238 227.021,268.002 228.706,271.78 230.362,275.57 231.989,279.372 233.587,283.187 235.155,287.014 236.694,290.853 238.203,294.704 239.683,298.566 241.133,302.44 242.553,306.324 243.944,310.22 245.304,314.126 246.634,318.042 247.935,321.968 249.205,325.904 250.445,329.85 251.654,333.805 252.833,337.77 253.982,341.743 255.1,345.725 256.187,349.716 257.244,353.714 258.27,357.721 259.265,361.736 260.229,365.758 261.163,369.787 262.065,373.823 262.937,377.867 263.777,381.916 264.587,385.972 265.365,390.035 266.111,394.103 266.827,398.176 267.511,402.255 268.164,406.339 268.786,410.429 269.376,414.522 269.935,418.62 270.462,422.723 270.958,426.829 271.422,430.939 271.854,435.052 272.255,439.169 272.625,443.288 272.962,447.41 273.268,451.535 273.543,455.662 273.785,459.791 273.996,463.921 274.176,468.054 274.323,472.187 274.439,476.321 274.523,480.457 274.575,484.592 274.595,488.728 274.584,492.864 274.541,497 274.584,501.136 274.595,505.272 274.575,509.408 274.523,513.543 274.439,517.679 274.323,521.813 274.176,525.946 273.996,530.079 273.785,534.209 273.543,538.338 273.268,542.465 272.962,546.59 272.625,550.712 272.255,554.831 271.854,558.948 271.422,563.061 270.958,567.171 270.462,571.277 269.935,575.38 269.376,579.478 268.786,583.572 268.164,587.661 267.511,591.745 266.827,595.824 266.112,599.897 265.365,603.965 264.587,608.028 263.777,612.084 262.937,616.133 262.065,620.177 261.163,624.213 260.23,628.242 259.265,632.264 258.27,636.279 257.244,640.286 256.187,644.284 255.1,648.275 253.982,652.257 252.833,656.23 251.654,660.195 250.445,664.15 249.205,668.096 247.935,672.032 246.634,675.958 245.304,679.874 243.944,683.78 242.553,687.676 241.133,691.56 239.683,695.434 238.203,699.296 236.694,703.147 235.155,706.986 233.587,710.813 231.989,714.628 230.362,718.43 228.706,722.22 227.021,725.998 225.307,729.762 223.564,733.513 221.792,737.25 219.992,740.974 218.163,744.683 216.306,748.379 214.42,752.06 212.993,754.872 211.588,757.696 210.206,760.531 208.846,763.377 207.51,766.234 206.196,769.101 204.905,771.979 203.637,774.867 202.393,777.764 201.171,780.672 199.973,783.59 198.799,786.517 197.647,789.453 196.52,792.398 195.415,795.353 194.335,798.316 193.278,801.287 192.245,804.267 191.236,807.255 190.25,810.251 189.289,813.255 188.352,816.267 187.439,819.285 186.55,822.311 185.685,825.344 184.845,828.384 184.029,831.431 183.237,834.484 182.47,837.543 181.727,840.608 181.009,843.679 180.315,846.756 179.646,849.838 179.001,852.925 178.382,856.018 177.787,859.115 177.217,862.217 176.671,865.323 176.151,868.434 175.655,871.549 175.184,874.667 174.739,877.789 174.318,880.915 173.922,884.044 173.551,887.176 173.206,890.311 172.885,893.449 172.59,896.589 172.319,899.731 172.074,902.875 171.854,906.022 171.659,909.169 171.489,912.319 171.344,915.469 171.225,918.621 171.131,921.773 171.062,924.927 171.018,928.08 171,931.234 171.006,934.388 171.038,937.542 171.095,940.695 171.177,943.848 171.285,947 " />
<polyline name-id = "w5" align-attribute = "XyMtUSMeV9wzJhUkZBQfJt8uYCEgYBIjGSf1UhgzURL2DCEkUxcvGRAnVRYpJiXtSxsgUiMaUhgzURMaIO8aJt80TxQpYBQtGRAnVRYpJiXsSygeUR0vUSEaUhgzURMaH9zrSr" style = "fill:none; stroke:Black; stroke-width:1" points = "386.498,53 386.526,59.098 386.541,65.196 386.541,71.295 386.526,77.39301 386.498,83.491 386.455,89.589 386.398,95.687 386.327,101.785 386.241,107.883 386.141,113.98 386.027,120.078 385.898,126.174 385.756,132.271 385.599,138.367 385.428,144.463 385.242,150.559 385.043,156.654 384.829,162.748 384.6,168.842 384.358,174.936 384.101,181.029 383.83,187.121 383.545,193.212 383.246,199.303 382.932,205.393 382.604,211.483 382.262,217.572 381.905,223.659 381.534,229.746 381.15,235.833 380.75,241.918 380.337,248.002 379.801,255.959 379.281,263.917 378.778,271.876 378.291,279.837 377.82,287.798 377.366,295.76 376.928,303.723 376.506,311.687 376.101,319.652 375.713,327.618 375.34,335.584 374.984,343.551 374.645,351.519 374.322,359.488 374.015,367.457 373.725,375.427 373.451,383.397 373.193,391.368 372.952,399.34 372.727,407.311 372.519,415.284 372.327,423.257 372.151,431.23 371.992,439.203 371.85,447.177 371.723,455.151 371.613,463.126 371.52,471.1 371.443,479.075 371.382,487.05 371.338,495.025 371.31,503 371.338,510.975 371.382,518.95 371.443,526.925 371.52,534.9 371.613,542.875 371.723,550.849 371.85,558.823 371.992,566.797 372.151,574.771 372.327,582.744 372.519,590.717 372.727,598.689 372.952,606.661 373.193,614.633 373.451,622.604 373.725,630.574 374.015,638.544 374.322,646.513 374.645,654.482 374.984,662.45 375.34,670.417 375.713,678.384 376.101,686.349 376.506,694.314 376.928,702.278 377.366,710.242 377.82,718.204 378.291,726.165 378.778,734.125 379.281,742.085 379.801,750.043 380.337,758 380.75,764.084 381.15,770.169 381.534,776.255 381.905,782.342 382.262,788.43 382.604,794.519 382.932,800.608 383.246,806.698 383.545,812.789 383.83,818.881 384.101,824.973 384.358,831.066 384.6,837.159 384.829,843.253 385.043,849.347 385.242,855.442 385.428,861.538 385.599,867.634 385.756,873.73 385.898,879.826 386.027,885.923 386.141,892.02 386.241,898.118 386.327,904.215 386.398,910.313 386.455,916.411 386.498,922.509 386.526,928.607 386.541,934.705 386.541,940.804 386.526,946.902 386.498,953 " />
<polyline name-id = "w6" align-attribute = "XyMtUSMeV9wzJhUkZBQfJt8uYCEgYBIjGSf1UhgzURL2DCEkUxcvGRAnVRYpJiXwSyEkUxcvSxUkZBQfSuPzSunbZRIgWiMgXdwcWBgiWekyHQ40TxQpYBQtSxUkZBQfSu7pHA3" style = "fill:none; stroke:Black; stroke-width:1" points = "444.524,963 444.538,959.926 444.541,956.852 444.533,953.778 444.513,950.704 444.482,947.631 444.439,944.557 444.385,941.483 444.319,938.41 444.243,935.337 444.154,932.264 444.054,929.192 443.943,926.12 443.82,923.049 443.686,919.978 443.541,916.907 443.384,913.837 443.215,910.768 443.036,907.699 442.844,904.631 442.642,901.564 442.428,898.497 442.203,895.432 441.966,892.367 441.718,889.303 441.458,886.24 441.187,883.178 440.905,880.117 440.611,877.057 440.306,873.998 439.9901,870.941 439.662,867.884 439.323,864.829 438.972,861.775 438.61,858.723 438.237,855.672 437.8521,852.622 437.456,849.573 437.049,846.527 436.631,843.481 436.201,840.438 435.759,837.395 435.307,834.355 434.843,831.316 434.368,828.279 433.882,825.244 433.384,822.211 432.875,819.179 432.355,816.149 431.823,813.122 431.281,810.096 430.7271,807.073 430.161,804.051 429.585,801.032 428.997,798.014 428.398,794.999 427.788,791.986 427.167,788.976 426.534,785.968 425.8911,782.962 425.236,779.959 424.57,776.958 423.893,773.959 423.204,770.963 422.505,767.97 421.514,764.068 420.538,760.162 419.578,756.252 418.632,752.339 417.703,748.422 416.788,744.501 415.889,740.577 415.005,736.649 414.136,732.718 413.283,728.783 412.446,724.845 411.623,720.904 410.817,716.96 410.025,713.013 409.249,709.062 408.489,705.109 407.744,701.152 407.014,697.193 406.3,693.231 405.6021,689.266 404.919,685.298 404.251,681.328 403.599,677.355 402.963,673.38 402.342,669.402 401.737,665.422 401.147,661.439 400.573,657.454 400.014,653.467 399.472,649.478 398.944,645.487 398.433,641.494 397.937,637.498 397.456,633.501 396.991,629.502 396.542,625.501 396.109,621.499 395.691,617.494 395.289,613.489 394.903,609.481 394.532,605.472 394.177,601.462 393.837,597.45 393.514,593.437 393.206,589.423 392.914,585.408 392.637,581.391 392.376,577.374 392.131,573.355 391.902,569.336 391.688,565.316 391.4901,561.295 391.308,557.273 391.1411,553.25 390.991,549.227 390.856,545.203 390.737,541.179 390.633,537.155 390.545,533.13 390.473,529.104 390.417,525.079 390.377,521.053 390.3521,517.027 390.343,513.001 390.3521,508.975 390.377,504.949 390.417,500.923 390.473,496.898 390.545,492.872 390.633,488.847 390.737,484.823 390.856,480.799 390.991,476.775 391.1411,472.752 391.308,468.729 391.4901,464.707 391.688,460.686 391.902,456.666 392.131,452.646 392.376,448.628 392.637,444.61 392.914,440.594 393.206,436.578 393.514,432.564 393.837,428.551 394.177,424.54 394.532,420.529 394.903,416.521 395.289,412.513 395.691,408.507 396.109,404.503 396.542,400.5 396.991,396.5 397.456,392.5 397.937,388.503 398.433,384.508 398.944,380.515 399.472,376.523 400.014,372.534 400.573,368.547 401.147,364.562 401.737,360.58 402.342,356.599 402.963,352.622 403.599,348.646 404.251,344.673 404.919,340.703 405.6021,336.735 406.3,332.771 407.014,328.808 407.744,324.849 408.489,320.893 409.249,316.939 410.025,312.989 410.817,309.041 411.623,305.097 412.446,301.156 413.283,297.218 414.136,293.283 415.005,289.352 415.889,285.424 416.788,281.5 417.703,277.579 418.632,273.662 419.578,269.749 420.538,265.839 421.514,261.933 422.505,258.031 423.204,255.038 423.893,252.042 424.57,249.043 425.236,246.042 425.8911,243.039 426.534,240.033 427.167,237.025 427.788,234.014 428.398,231.002 428.997,227.987 429.585,224.969 430.161,221.95 430.7271,218.928 431.281,215.905 431.823,212.879 432.355,209.851 432.875,206.822 433.384,203.79 433.882,200.757 434.368,197.722 434.843,194.684 435.307,191.646 435.76,188.605 436.201,185.563 436.631,182.519 437.049,179.474 437.456,176.427 437.8521,173.379 438.237,170.329 438.61,167.278 438.972,164.225 439.323,161.171 439.662,158.116 439.9901,155.06 440.306,152.002 440.611,148.943 440.905,145.883 441.187,142.822 441.458,139.76 441.718,136.697 441.966,133.633 442.203,130.569 442.428,127.503 442.642,124.436 442.845,121.369 443.036,118.301 443.215,115.232 443.384,112.163 443.541,109.093 443.686,106.023 443.82,102.951 443.943,99.88 444.054,96.808 444.154,93.73599 444.243,90.66299 444.32,87.59 444.385,84.517 444.439,81.443 444.482,78.37 444.513,75.296 444.533,72.222 444.541,69.14799 444.538,66.074 444.524,63 " />
<polyline name-id = "w7" align-attribute = "XyMtUSMeV9wzJhUkZBQfJt8uYCEgYBIjGSf1UhgzURL2DCEkUxcvGRAnVRYpJiXxSyEkUxcvSxUkZBQfSuT0SunbZRIgWiMgXdwcWBgiWekyHQ40TxQpYBQtSxUkZBQfSu7pHA3" style = "fill:none; stroke:Black; stroke-width:1" points = "522.3099,63 522.418,66.152 522.5,69.305 522.557,72.458 522.589,75.612 522.595,78.766 522.577,81.92 522.533,85.073 522.464,88.22699 522.37,91.379 522.251,94.53101 522.106,97.681 521.936,100.831 521.741,103.978 521.521,107.125 521.276,110.269 521.005,113.411 520.71,116.551 520.389,119.689 520.0439,122.824 519.673,125.956 519.277,129.085 518.856,132.211 518.411,135.333 517.9399,138.451 517.444,141.566 516.924,144.677 516.378,147.783 515.808,150.885 515.213,153.982 514.594,157.075 513.949,160.162 513.28,163.244 512.5859,166.321 511.868,169.392 511.125,172.457 510.358,175.516 509.566,178.569 508.75,181.616 507.91,184.656 507.045,187.689 506.156,190.715 505.243,193.733 504.306,196.745 503.345,199.749 502.359,202.745 501.35,205.733 500.317,208.713 499.26,211.684 498.1799,214.647 497.075,217.602 495.948,220.547 494.796,223.483 493.6219,226.41 492.424,229.328 491.202,232.236 489.958,235.133 488.6899,238.021 487.399,240.899 486.085,243.766 484.749,246.623 483.389,249.469 482.007,252.304 480.602,255.128 479.175,257.94 477.2889,261.621 475.432,265.317 473.603,269.026 471.803,272.75 470.031,276.487 468.288,280.238 466.574,284.002 464.889,287.78 463.233,291.57 461.606,295.372 460.0079,299.187 458.4399,303.014 456.901,306.853 455.392,310.704 453.912,314.566 452.462,318.44 451.042,322.324 449.651,326.22 448.291,330.126 446.9609,334.042 445.66,337.968 444.39,341.904 443.15,345.85 441.941,349.805 440.762,353.77 439.613,357.743 438.495,361.725 437.408,365.716 436.351,369.714 435.325,373.721 434.33,377.736 433.366,381.758 432.432,385.787 431.53,389.823 430.658,393.867 429.818,397.916 429.0079,401.972 428.23,406.035 427.484,410.103 426.7679,414.176 426.084,418.255 425.431,422.339 424.809,426.429 424.219,430.522 423.66,434.62 423.1329,438.723 422.637,442.829 422.173,446.939 421.741,451.052 421.34,455.169 420.97,459.288 420.6329,463.41 420.327,467.535 420.052,471.662 419.8099,475.791 419.599,479.921 419.4189,484.054 419.272,488.187 419.156,492.321 419.072,496.457 419.02,500.592 419,504.728 419.011,508.864 419.054,513 419.011,517.136 419,521.272 419.02,525.408 419.072,529.543 419.156,533.679 419.272,537.813 419.4189,541.946 419.599,546.079 419.8099,550.209 420.052,554.338 420.327,558.465 420.6329,562.59 420.97,566.712 421.34,570.831 421.741,574.948 422.173,579.061 422.637,583.171 423.1329,587.277 423.66,591.38 424.219,595.478 424.809,599.572 425.431,603.661 426.084,607.745 426.7679,611.824 427.483,615.897 428.23,619.965 429.0079,624.028 429.818,628.084 430.658,632.133 431.53,636.177 432.432,640.213 433.365,644.242 434.33,648.264 435.325,652.279 436.351,656.286 437.408,660.284 438.495,664.275 439.613,668.257 440.762,672.23 441.941,676.195 443.15,680.15 444.39,684.096 445.66,688.032 446.9609,691.958 448.291,695.874 449.651,699.78 451.042,703.676 452.462,707.56 453.912,711.434 455.392,715.296 456.901,719.147 458.4399,722.986 460.0079,726.813 461.606,730.628 463.233,734.43 464.889,738.22 466.574,741.998 468.288,745.762 470.031,749.513 471.803,753.25 473.603,756.974 475.432,760.683 477.2889,764.379 479.175,768.06 480.602,770.872 482.007,773.696 483.389,776.531 484.749,779.377 486.085,782.234 487.399,785.101 488.6899,787.979 489.958,790.867 491.202,793.764 492.424,796.672 493.6219,799.59 494.796,802.517 495.948,805.453 497.075,808.398 498.1799,811.353 499.26,814.316 500.317,817.287 501.35,820.267 502.359,823.255 503.345,826.251 504.306,829.255 505.243,832.267 506.156,835.285 507.045,838.311 507.91,841.344 508.75,844.384 509.566,847.431 510.358,850.484 511.125,853.543 511.868,856.608 512.5859,859.679 513.28,862.756 513.949,865.838 514.594,868.925 515.213,872.018 515.808,875.115 516.378,878.217 516.924,881.323 517.444,884.434 517.9399,887.549 518.411,890.667 518.856,893.789 519.277,896.915 519.673,900.044 520.0439,903.176 520.389,906.311 520.71,909.449 521.005,912.589 521.276,915.731 521.521,918.875 521.741,922.022 521.936,925.169 522.106,928.319 522.251,931.469 522.37,934.621 522.464,937.773 522.533,940.927 522.577,944.08 522.595,947.234 522.589,950.388 522.557,953.542 522.5,956.695 522.418,959.848 522.3099,963 " />
<polyline name-id = "w8" align-attribute = "XyMtUSMeV9wzJhUkZBQfJt8uYCEgYBIjGSf1UhgzURL2DBsgUiLoTRskUxz1YugaWBQhYA4hVScgUA3oIegaJt80TxQpYBQtGRAnVRYpJiXsSygeUR0vUSEaUhgzURMaH9zrSr" style = "fill:none; stroke:Black; stroke-width:1" points = "807.285,49 807.177,52.152 807.095,55.305 807.038,58.458 807.006,61.612 807,64.766 807.018,67.92 807.062,71.073 807.131,74.227 807.225,77.379 807.344,80.531 807.489,83.681 807.659,86.831 807.854,89.978 808.074,93.125 808.319,96.269 808.59,99.411 808.885,102.551 809.206,105.689 809.551,108.824 809.922,111.956 810.318,115.085 810.739,118.211 811.184,121.333 811.655,124.451 812.151,127.566 812.671,130.677 813.217,133.783 813.787,136.885 814.382,139.982 815.001,143.075 815.646,146.162 816.315,149.244 817.009,152.321 817.727,155.392 818.47,158.457 819.237,161.516 820.029,164.569 820.845,167.616 821.685,170.656 822.55,173.689 823.439,176.715 824.352,179.733 825.289,182.745 826.25,185.749 827.236,188.745 828.245,191.733 829.278,194.713 830.335,197.684 831.415,200.647 832.52,203.602 833.647,206.547 834.799,209.483 835.973,212.41 837.171,215.328 838.393,218.236 839.637,221.133 840.905,224.021 842.196,226.899 843.51,229.766 844.846,232.623 846.206,235.469 847.588,238.304 848.993,241.128 850.42,243.94 852.306,247.621 854.163,251.317 855.992,255.026 857.792,258.75 859.564,262.487 861.307,266.238 863.021,270.002 864.706,273.78 866.362,277.57 867.989,281.372 869.587,285.187 871.155,289.014 872.694,292.853 874.203,296.704 875.683,300.566 877.133,304.44 878.553,308.324 879.944,312.22 881.304,316.126 882.634,320.042 883.935,323.968 885.205,327.904 886.445,331.85 887.654,335.805 888.833,339.77 889.982,343.743 891.1,347.725 892.187,351.716 893.244,355.714 894.27,359.721 895.265,363.736 896.229,367.758 897.163,371.787 898.065,375.823 898.937,379.867 899.777,383.916 900.587,387.972 901.365,392.035 902.111,396.103 902.827,400.176 903.511,404.255 904.164,408.339 904.786,412.429 905.376,416.522 905.935,420.62 906.462,424.723 906.958,428.829 907.422,432.939 907.854,437.052 908.255,441.169 908.625,445.288 908.962,449.41 909.268,453.535 909.543,457.662 909.785,461.791 909.996,465.921 910.176,470.054 910.323,474.187 910.439,478.321 910.523,482.457 910.575,486.592 910.595,490.728 910.584,494.864 910.541,499 910.584,503.136 910.595,507.272 910.575,511.408 910.523,515.543 910.439,519.679 910.323,523.813 910.176,527.946 909.996,532.079 909.785,536.209 909.543,540.338 909.268,544.465 908.962,548.59 908.625,552.712 908.255,556.831 907.854,560.948 907.422,565.061 906.958,569.171 906.462,573.277 905.935,577.38 905.376,581.478 904.786,585.572 904.164,589.661 903.511,593.745 902.827,597.824 902.112,601.897 901.365,605.965 900.587,610.028 899.777,614.084 898.937,618.133 898.065,622.177 897.163,626.213 896.23,630.242 895.265,634.264 894.27,638.279 893.244,642.286 892.187,646.284 891.1,650.275 889.982,654.257 888.833,658.23 887.654,662.195 886.445,666.15 885.205,670.096 883.935,674.032 882.634,677.958 881.304,681.874 879.944,685.78 878.553,689.676 877.133,693.56 875.683,697.434 874.203,701.296 872.694,705.147 871.155,708.986 869.587,712.813 867.989,716.628 866.362,720.43 864.706,724.22 863.021,727.998 861.307,731.762 859.564,735.513 857.792,739.25 855.992,742.974 854.163,746.683 852.306,750.379 850.42,754.06 848.993,756.872 847.588,759.696 846.206,762.531 844.846,765.377 843.51,768.234 842.196,771.101 840.905,773.979 839.637,776.867 838.393,779.764 837.171,782.672 835.973,785.59 834.799,788.517 833.647,791.453 832.52,794.398 831.415,797.353 830.335,800.316 829.278,803.287 828.245,806.267 827.236,809.255 826.25,812.251 825.289,815.255 824.352,818.267 823.439,821.285 822.55,824.311 821.685,827.344 820.845,830.384 820.029,833.431 819.237,836.484 818.47,839.543 817.727,842.608 817.009,845.679 816.315,848.756 815.646,851.838 815.001,854.925 814.382,858.018 813.787,861.115 813.217,864.217 812.671,867.323 812.151,870.434 811.655,873.549 811.184,876.667 810.739,879.789 810.318,882.915 809.922,886.044 809.551,889.176 809.206,892.311 808.885,895.449 808.59,898.589 808.319,901.731 808.074,904.875 807.854,908.022 807.659,911.169 807.489,914.319 807.344,917.469 807.225,920.621 807.131,923.773 807.062,926.927 807.018,930.08 807,933.234 807.006,936.388 807.038,939.542 807.095,942.695 807.177,945.848 807.285,949 " />
<polyline name-id = "w9" align-attribute = "XyMtUSMeV9wzJhUkZBQfJt8uYCEgYBIjGSf1UhgzURL2DBsgUiLoTRskUxz1Yu/rSxsgUiMaUhgzURMaGOPzSunbZRIgWiMgXdwcWBgiWekyHQ40TxQpYBQtSxUkZBQfSu7pHA3" style = "fill:none; stroke:Black; stroke-width:1" points = "886.36,969 886.346,965.926 886.343,962.852 886.351,959.778 886.371,956.704 886.402,953.631 886.445,950.557 886.499,947.483 886.565,944.41 886.641,941.337 886.73,938.264 886.83,935.192 886.941,932.12 887.064,929.049 887.198,925.978 887.343,922.907 887.5,919.837 887.669,916.768 887.848,913.699 888.04,910.631 888.242,907.564 888.456,904.497 888.681,901.432 888.918,898.367 889.166,895.303 889.426,892.24 889.697,889.178 889.979,886.117 890.273,883.057 890.578,879.998 890.894,876.941 891.222,873.884 891.561,870.829 891.912,867.775 892.274,864.723 892.647,861.672 893.032,858.622 893.428,855.573 893.835,852.527 894.253,849.481 894.683,846.438 895.125,843.395 895.577,840.355 896.041,837.316 896.516,834.279 897.002,831.244 897.5,828.211 898.009,825.179 898.529,822.149 899.061,819.122 899.603,816.096 900.157,813.073 900.723,810.051 901.299,807.032 901.887,804.014 902.486,800.999 903.096,797.986 903.717,794.976 904.35,791.968 904.993,788.962 905.648,785.959 906.314,782.958 906.991,779.959 907.68,776.963 908.379,773.97 909.37,770.068 910.346,766.162 911.306,762.252 912.252,758.339 913.181,754.422 914.096,750.501 914.995,746.577 915.879,742.649 916.748,738.718 917.601,734.783 918.438,730.845 919.261,726.904 920.067,722.96 920.859,719.013 921.635,715.062 922.395,711.109 923.14,707.152 923.87,703.193 924.584,699.231 925.282,695.266 925.965,691.298 926.633,687.328 927.285,683.355 927.921,679.38 928.542,675.402 929.147,671.422 929.737,667.439 930.311,663.454 930.87,659.467 931.412,655.478 931.94,651.487 932.451,647.494 932.947,643.498 933.428,639.501 933.893,635.502 934.342,631.501 934.775,627.499 935.193,623.494 935.595,619.489 935.981,615.481 936.352,611.472 936.707,607.462 937.047,603.45 937.37,599.437 937.678,595.423 937.97,591.408 938.247,587.391 938.508,583.374 938.753,579.355 938.982,575.336 939.196,571.316 939.394,567.295 939.576,563.273 939.743,559.25 939.893,555.227 940.028,551.203 940.147,547.179 940.251,543.155 940.339,539.13 940.411,535.104 940.467,531.079 940.507,527.053 940.532,523.027 940.541,519.001 940.532,514.975 940.507,510.949 940.467,506.923 940.411,502.898 940.339,498.872 940.251,494.847 940.147,490.823 940.028,486.799 939.893,482.775 939.743,478.752 939.576,474.729 939.394,470.707 939.196,466.686 938.982,462.666 938.753,458.646 938.508,454.628 938.247,450.61 937.97,446.594 937.678,442.578 937.37,438.564 937.047,434.551 936.707,430.54 936.352,426.529 935.981,422.521 935.595,418.513 935.193,414.507 934.775,410.503 934.342,406.5 933.893,402.5 933.428,398.5 932.947,394.503 932.451,390.508 931.94,386.515 931.412,382.523 930.87,378.534 930.311,374.547 929.737,370.562 929.147,366.58 928.542,362.599 927.921,358.622 927.285,354.646 926.633,350.673 925.965,346.703 925.282,342.735 924.584,338.771 923.87,334.808 923.14,330.849 922.395,326.893 921.635,322.939 920.859,318.989 920.067,315.041 919.261,311.097 918.438,307.156 917.601,303.218 916.748,299.283 915.879,295.352 914.995,291.424 914.096,287.5 913.181,283.579 912.252,279.662 911.306,275.749 910.346,271.839 909.37,267.933 908.379,264.031 907.68,261.038 906.991,258.042 906.314,255.043 905.648,252.042 904.993,249.039 904.35,246.033 903.717,243.025 903.096,240.014 902.486,237.002 901.887,233.987 901.299,230.969 900.723,227.95 900.157,224.928 899.603,221.905 899.061,218.879 898.529,215.851 898.009,212.822 897.5,209.79 897.002,206.757 896.516,203.722 896.041,200.684 895.577,197.646 895.124,194.605 894.683,191.563 894.253,188.519 893.835,185.474 893.428,182.427 893.032,179.379 892.647,176.329 892.274,173.278 891.912,170.225 891.561,167.171 891.222,164.116 890.894,161.06 890.578,158.002 890.273,154.943 889.979,151.883 889.697,148.822 889.426,145.76 889.166,142.697 888.918,139.633 888.681,136.569 888.456,133.503 888.242,130.436 888.039,127.369 887.848,124.301 887.669,121.232 887.5,118.163 887.343,115.093 887.198,112.023 887.064,108.951 886.941,105.88 886.83,102.808 886.73,99.73599 886.641,96.66299 886.564,93.59 886.499,90.517 886.445,87.44299 886.402,84.37 886.371,81.296 886.351,78.222 886.343,75.14799 886.346,72.074 886.36,69 " />
<polyline name-id = "w10" align-attribute = "XyMtUSMeV9wzJhUkZBQfJt8uYCEgYBIjGSf1UhgzURL2DBsgUiLoTRskUxz1Yu/sSyEkUxcvSxUkZBQfStvwHA32DCgeUR0vUSDoTRskUxz1YuAaZRIgWiMgXg4hVScgUA3rGe8a" style = "fill:none; stroke:Black; stroke-width:1" points = "955.353,65 955.325,71.098 955.31,77.196 955.31,83.295 955.325,89.39301 955.353,95.491 955.396,101.589 955.453,107.687 955.524,113.785 955.61,119.883 955.71,125.98 955.824,132.078 955.953,138.174 956.095,144.271 956.252,150.367 956.423,156.463 956.609,162.559 956.808,168.654 957.022,174.748 957.251,180.842 957.493,186.936 957.75,193.029 958.021,199.121 958.306,205.212 958.605,211.303 958.919,217.393 959.247,223.483 959.589,229.572 959.946,235.659 960.317,241.746 960.701,247.833 961.101,253.918 961.514,260.002 962.05,267.959 962.57,275.917 963.073,283.876 963.56,291.837 964.031,299.798 964.485,307.76 964.923,315.723 965.345,323.687 965.75,331.652 966.138,339.618 966.511,347.584 966.867,355.551 967.206,363.519 967.529,371.488 967.836,379.457 968.126,387.427 968.4,395.397 968.658,403.368 968.899,411.34 969.124,419.311 969.332,427.284 969.524,435.257 969.7,443.23 969.859,451.203 970.001,459.177 970.128,467.151 970.238,475.126 970.331,483.1 970.408,491.075 970.469,499.05 970.513,507.025 970.541,515 970.513,522.975 970.469,530.95 970.408,538.925 970.331,546.9 970.238,554.875 970.128,562.849 970.001,570.823 969.859,578.797 969.7,586.771 969.524,594.744 969.332,602.717 969.124,610.689 968.899,618.661 968.658,626.633 968.4,634.604 968.126,642.574 967.836,650.544 967.529,658.513 967.206,666.482 966.867,674.45 966.511,682.417 966.138,690.384 965.75,698.349 965.345,706.314 964.923,714.278 964.485,722.242 964.031,730.204 963.56,738.165 963.073,746.125 962.57,754.085 962.05,762.043 961.514,770 961.101,776.084 960.701,782.169 960.317,788.255 959.946,794.342 959.589,800.43 959.247,806.519 958.919,812.608 958.605,818.698 958.306,824.789 958.021,830.881 957.75,836.973 957.493,843.066 957.251,849.159 957.022,855.253 956.808,861.347 956.609,867.442 956.423,873.538 956.252,879.634 956.095,885.73 955.953,891.826 955.824,897.923 955.71,904.02 955.61,910.118 955.524,916.215 955.453,922.313 955.396,928.411 955.353,934.509 955.325,940.607 955.31,946.705 955.31,952.804 955.325,958.902 955.353,965 " />
<polyline name-id = "w11" align-attribute = "XyMtUSMeV9wzJhUkZBQfJt8uYCEgYBIjGSf1UhgzURL2DCEkUxcvGRAnVRYpJiXsHg4tVRYjYA4hVScgUA3oIOcaJt80TxQpYBQtGRAnVRYpJiXsSygeUR0vUSEaUhgzURMaH9zrSr" style = "fill:none; stroke:Black; stroke-width:1" points = "1008.498,65 1008.526,71.098 1008.541,77.196 1008.541,83.295 1008.526,89.39301 1008.498,95.491 1008.455,101.589 1008.398,107.687 1008.327,113.785 1008.241,119.883 1008.141,125.98 1008.027,132.078 1007.898,138.174 1007.756,144.271 1007.599,150.367 1007.428,156.463 1007.242,162.559 1007.043,168.654 1006.829,174.748 1006.6,180.842 1006.358,186.936 1006.101,193.029 1005.83,199.121 1005.545,205.212 1005.246,211.303 1004.932,217.393 1004.604,223.483 1004.262,229.572 1003.905,235.659 1003.534,241.746 1003.15,247.833 1002.75,253.918 1002.337,260.002 1001.801,267.959 1001.281,275.917 1000.778,283.876 1000.291,291.837 999.82,299.798 999.366,307.76 998.928,315.723 998.506,323.687 998.101,331.652 997.713,339.618 997.34,347.584 996.984,355.551 996.645,363.519 996.322,371.488 996.015,379.457 995.725,387.427 995.451,395.397 995.193,403.368 994.952,411.34 994.7271,419.311 994.519,427.284 994.327,435.257 994.151,443.23 993.992,451.203 993.85,459.177 993.723,467.151 993.613,475.126 993.52,483.1 993.443,491.075 993.382,499.05 993.338,507.025 993.31,515 993.338,522.975 993.382,530.95 993.443,538.925 993.52,546.9 993.613,554.875 993.723,562.849 993.85,570.823 993.992,578.797 994.151,586.771 994.327,594.744 994.519,602.717 994.7271,610.689 994.952,618.661 995.193,626.633 995.451,634.604 995.725,642.574 996.015,650.544 996.322,658.513 996.645,666.482 996.984,674.45 997.34,682.417 997.713,690.384 998.101,698.349 998.506,706.314 998.928,714.278 999.366,722.242 999.82,730.204 1000.291,738.165 1000.778,746.125 1001.281,754.085 1001.801,762.043 1002.337,770 1002.75,776.084 1003.15,782.169 1003.534,788.255 1003.905,794.342 1004.262,800.43 1004.604,806.519 1004.932,812.608 1005.246,818.698 1005.545,824.789 1005.83,830.881 1006.101,836.973 1006.358,843.066 1006.6,849.159 1006.829,855.253 1007.043,861.347 1007.242,867.442 1007.428,873.538 1007.599,879.634 1007.756,885.73 1007.898,891.826 1008.027,897.923 1008.141,904.02 1008.241,910.118 1008.327,916.215 1008.398,922.313 1008.455,928.411 1008.498,934.509 1008.526,940.607 1008.541,946.705 1008.541,952.804 1008.526,958.902 1008.498,965 " />
<polyline name-id = "w12" align-attribute = "XyMtUSMeV9wzJhUkZBQfJt8uYCEgYBIjGSf1UhgzURL2DCEkUxcvGRAnVRYpJiXsHw4tVRYjYA4hVScgUA3oIegaJt80TxQpYBQtGRAnVRYpJiXsSygeUR0vUSEaUhgzURMaH9zrSr" style = "fill:none; stroke:Black; stroke-width:1" points = "1074.524,953 1074.538,949.926 1074.541,946.852 1074.533,943.778 1074.513,940.704 1074.482,937.631 1074.439,934.557 1074.385,931.483 1074.319,928.41 1074.243,925.337 1074.154,922.264 1074.054,919.192 1073.943,916.12 1073.82,913.049 1073.686,909.978 1073.541,906.907 1073.384,903.837 1073.215,900.768 1073.036,897.699 1072.844,894.631 1072.642,891.564 1072.428,888.497 1072.203,885.432 1071.966,882.367 1071.718,879.303 1071.458,876.24 1071.187,873.178 1070.905,870.117 1070.611,867.057 1070.306,863.998 1069.99,860.941 1069.662,857.884 1069.323,854.829 1068.972,851.775 1068.61,848.723 1068.237,845.672 1067.852,842.622 1067.456,839.573 1067.049,836.527 1066.631,833.481 1066.201,830.438 1065.759,827.395 1065.307,824.355 1064.843,821.316 1064.368,818.279 1063.882,815.244 1063.384,812.211 1062.875,809.179 1062.355,806.149 1061.823,803.122 1061.281,800.096 1060.727,797.073 1060.161,794.051 1059.585,791.032 1058.997,788.014 1058.398,784.999 1057.788,781.986 1057.167,778.976 1056.534,775.968 1055.891,772.962 1055.236,769.959 1054.57,766.958 1053.893,763.959 1053.204,760.963 1052.505,757.97 1051.514,754.068 1050.538,750.162 1049.578,746.252 1048.632,742.339 1047.703,738.422 1046.788,734.501 1045.889,730.577 1045.005,726.649 1044.136,722.718 1043.283,718.783 1042.446,714.845 1041.623,710.904 1040.817,706.96 1040.025,703.013 1039.249,699.062 1038.489,695.109 1037.744,691.152 1037.014,687.193 1036.3,683.231 1035.602,679.266 1034.919,675.298 1034.251,671.328 1033.599,667.355 1032.963,663.38 1032.342,659.402 1031.737,655.422 1031.147,651.439 1030.573,647.454 1030.014,643.467 1029.472,639.478 1028.944,635.487 1028.433,631.494 1027.937,627.498 1027.456,623.501 1026.991,619.502 1026.542,615.501 1026.109,611.499 1025.691,607.494 1025.289,603.489 1024.903,599.481 1024.532,595.472 1024.177,591.462 1023.837,587.45 1023.514,583.437 1023.206,579.423 1022.914,575.408 1022.637,571.391 1022.376,567.374 1022.131,563.355 1021.902,559.336 1021.688,555.316 1021.49,551.295 1021.308,547.273 1021.141,543.25 1020.991,539.227 1020.856,535.203 1020.737,531.179 1020.633,527.155 1020.545,523.13 1020.473,519.104 1020.417,515.079 1020.377,511.053 1020.352,507.027 1020.343,503.001 1020.352,498.975 1020.377,494.949 1020.417,490.923 1020.473,486.898 1020.545,482.872 1020.633,478.847 1020.737,474.823 1020.856,470.799 1020.991,466.775 1021.141,462.752 1021.308,458.729 1021.49,454.707 1021.688,450.686 1021.902,446.666 1022.131,442.646 1022.376,438.628 1022.637,434.61 1022.914,430.594 1023.206,426.578 1023.514,422.564 1023.837,418.551 1024.177,414.54 1024.532,410.529 1024.903,406.521 1025.289,402.513 1025.691,398.507 1026.109,394.503 1026.542,390.5 1026.991,386.5 1027.456,382.5 1027.937,378.503 1028.433,374.508 1028.944,370.515 1029.472,366.523 1030.014,362.534 1030.573,358.547 1031.147,354.562 1031.737,350.58 1032.342,346.599 1032.963,342.622 1033.599,338.646 1034.251,334.673 1034.919,330.703 1035.602,326.735 1036.3,322.771 1037.014,318.808 1037.744,314.849 1038.489,310.893 1039.249,306.939 1040.025,302.989 1040.817,299.041 1041.623,295.097 1042.446,291.156 1043.283,287.218 1044.136,283.283 1045.005,279.352 1045.889,275.424 1046.788,271.5 1047.703,267.579 1048.632,263.662 1049.578,259.749 1050.538,255.839 1051.514,251.933 1052.505,248.031 1053.204,245.038 1053.893,242.042 1054.57,239.043 1055.236,236.042 1055.891,233.039 1056.534,230.033 1057.167,227.025 1057.788,224.014 1058.398,221.002 1058.997,217.987 1059.585,214.969 1060.161,211.95 1060.727,208.928 1061.281,205.905 1061.823,202.879 1062.355,199.851 1062.875,196.822 1063.384,193.79 1063.882,190.757 1064.368,187.722 1064.843,184.684 1065.307,181.646 1065.76,178.605 1066.201,175.563 1066.631,172.519 1067.049,169.474 1067.456,166.427 1067.852,163.379 1068.237,160.329 1068.61,157.278 1068.972,154.225 1069.323,151.171 1069.662,148.116 1069.99,145.06 1070.306,142.002 1070.611,138.943 1070.905,135.883 1071.187,132.822 1071.458,129.76 1071.718,126.697 1071.966,123.633 1072.203,120.569 1072.428,117.503 1072.642,114.436 1072.845,111.369 1073.036,108.301 1073.215,105.232 1073.384,102.163 1073.541,99.093 1073.686,96.02299 1073.82,92.951 1073.943,89.88 1074.054,86.808 1074.154,83.73599 1074.243,80.66299 1074.32,77.59 1074.385,74.517 1074.439,71.44299 1074.482,68.37 1074.513,65.29599 1074.533,62.222 1074.541,59.14799 1074.538,56.074 1074.524,53 " />
<polyline name-id = "w13" align-attribute = "XyMtUSMeV9wzJhUkZBQfJt8uYCEgYBIjGSf1UhgzURL2DCEkUxcvGRAnVRYpJiXsSyEkUxcvSxUkZBQfStvvHO8aJt80TxQpYBQtGRAnVRYpJiXsSygeUR0vUSEaUhgzURMaH9zrSr" style = "fill:none; stroke:Black; stroke-width:1" points = "1150.31,63 1150.418,66.152 1150.5,69.305 1150.557,72.458 1150.589,75.612 1150.595,78.766 1150.577,81.92 1150.533,85.073 1150.464,88.22699 1150.37,91.379 1150.251,94.53101 1150.106,97.681 1149.936,100.831 1149.741,103.978 1149.521,107.125 1149.276,110.269 1149.005,113.411 1148.71,116.551 1148.389,119.689 1148.044,122.824 1147.673,125.956 1147.277,129.085 1146.856,132.211 1146.411,135.333 1145.94,138.451 1145.444,141.566 1144.924,144.677 1144.378,147.783 1143.808,150.885 1143.213,153.982 1142.594,157.075 1141.949,160.162 1141.28,163.244 1140.586,166.321 1139.868,169.392 1139.125,172.457 1138.358,175.516 1137.566,178.569 1136.75,181.616 1135.91,184.656 1135.045,187.689 1134.156,190.715 1133.243,193.733 1132.306,196.745 1131.345,199.749 1130.359,202.745 1129.35,205.733 1128.317,208.713 1127.26,211.684 1126.18,214.647 1125.075,217.602 1123.948,220.547 1122.796,223.483 1121.622,226.41 1120.424,229.328 1119.202,232.236 1117.958,235.133 1116.69,238.021 1115.399,240.899 1114.085,243.766 1112.749,246.623 1111.389,249.469 1110.007,252.304 1108.602,255.128 1107.175,257.94 1105.289,261.621 1103.432,265.317 1101.603,269.026 1099.803,272.75 1098.031,276.487 1096.288,280.238 1094.574,284.002 1092.889,287.78 1091.233,291.57 1089.606,295.372 1088.008,299.187 1086.44,303.014 1084.901,306.853 1083.392,310.704 1081.912,314.566 1080.462,318.44 1079.042,322.324 1077.651,326.22 1076.291,330.126 1074.961,334.042 1073.66,337.968 1072.39,341.904 1071.15,345.85 1069.941,349.805 1068.762,353.77 1067.613,357.743 1066.495,361.725 1065.408,365.716 1064.351,369.714 1063.325,373.721 1062.33,377.736 1061.366,381.758 1060.432,385.787 1059.53,389.823 1058.658,393.867 1057.818,397.916 1057.008,401.972 1056.23,406.035 1055.484,410.103 1054.768,414.176 1054.084,418.255 1053.431,422.339 1052.809,426.429 1052.219,430.522 1051.66,434.62 1051.133,438.723 1050.637,442.829 1050.173,446.939 1049.741,451.052 1049.34,455.169 1048.97,459.288 1048.633,463.41 1048.327,467.535 1048.052,471.662 1047.81,475.791 1047.599,479.921 1047.419,484.054 1047.272,488.187 1047.156,492.321 1047.072,496.457 1047.02,500.592 1047,504.728 1047.011,508.864 1047.054,513 1047.011,517.136 1047,521.272 1047.02,525.408 1047.072,529.543 1047.156,533.679 1047.272,537.813 1047.419,541.946 1047.599,546.079 1047.81,550.209 1048.052,554.338 1048.327,558.465 1048.633,562.59 1048.97,566.712 1049.34,570.831 1049.741,574.948 1050.173,579.061 1050.637,583.171 1051.133,587.277 1051.66,591.38 1052.219,595.478 1052.809,599.572 1053.431,603.661 1054.084,607.745 1054.768,611.824 1055.483,615.897 1056.23,619.965 1057.008,624.028 1057.818,628.084 1058.658,632.133 1059.53,636.177 1060.432,640.213 1061.365,644.242 1062.33,648.264 1063.325,652.279 1064.351,656.286 1065.408,660.284 1066.495,664.275 1067.613,668.257 1068.762,672.23 1069.941,676.195 1071.15,680.15 1072.39,684.096 1073.66,688.032 1074.961,691.958 1076.291,695.874 1077.651,699.78 1079.042,703.676 1080.462,707.56 1081.912,711.434 1083.392,715.296 1084.901,719.147 1086.44,722.986 1088.008,726.813 1089.606,730.628 1091.233,734.43 1092.889,738.22 1094.574,741.998 1096.288,745.762 1098.031,749.513 1099.803,753.25 1101.603,756.974 1103.432,760.683 1105.289,764.379 1107.175,768.06 1108.602,770.872 1110.007,773.696 1111.389,776.531 1112.749,779.377 1114.085,782.234 1115.399,785.101 1116.69,787.979 1117.958,790.867 1119.202,793.764 1120.424,796.672 1121.622,799.59 1122.796,802.517 1123.948,805.453 1125.075,808.398 1126.18,811.353 1127.26,814.316 1128.317,817.287 1129.35,820.267 1130.359,823.255 1131.345,826.251 1132.306,829.255 1133.243,832.267 1134.156,835.285 1135.045,838.311 1135.91,841.344 1136.75,844.384 1137.566,847.431 1138.358,850.484 1139.125,853.543 1139.868,856.608 1140.586,859.679 1141.28,862.756 1141.949,865.838 1142.594,868.925 1143.213,872.018 1143.808,875.115 1144.378,878.217 1144.924,881.323 1145.444,884.434 1145.94,887.549 1146.411,890.667 1146.856,893.789 1147.277,896.915 1147.673,900.044 1148.044,903.176 1148.389,906.311 1148.71,909.449 1149.005,912.589 1149.276,915.731 1149.521,918.875 1149.741,922.022 1149.936,925.169 1150.106,928.319 1150.251,931.469 1150.37,934.621 1150.464,937.773 1150.533,940.927 1150.577,944.08 1150.595,947.234 1150.589,950.388 1150.557,953.542 1150.5,956.695 1150.418,959.848 1150.31,963 " />
<toolpath name-id = "w14" style = "fill:none; stroke:Black; stroke-width:1" toolpath-config = "Tx4oXB4pUR0vXukyHOnbWyQvWBgpUOjsJt8vHOjmHQ3rSu8aHA3rSu8aHA3rSu8aHA3rSw3rSu8aHA3rSu8aHA4a" x = "556," y = "34," width = "62," height = "58," />
<toolpath name-id = "w15" style = "fill:none; stroke:Black; stroke-width:1" toolpath-config = "Tx4oXB4pUR0vXukyI+nbY+/1FuAaHw3rSu8aHA3rSu8aHA3rSu8aHA4aHA3rSu8aHA3rSu8aSr" x = "68," y = "146," width = "68," height = "66," />
<toolpath name-id = "w16" style = "fill:none; stroke:Black; stroke-width:1" toolpath-config = "Tx4oXB4pUR0vXukyHunbY+/1FuAaHw3rSu8aHA3rSu8aHA3rSu8aHA4aHA3rSu8aHA3rSu8aSr" x = "68," y = "282," width = "68," height = "66," />
<toolpath name-id = "w17" style = "fill:none; stroke:Black; stroke-width:1" toolpath-config = "Tx4oXB4pUR0vXukyHenbY+/1FuAaHw3rSu8aHA3rSu8aHA3rSu8aHA4aHA3rSu8aHA3rSu8aSr" x = "70," y = "388," width = "68," height = "66," />
<toolpath name-id = "w18" style = "fill:none; stroke:Black; stroke-width:1" toolpath-config = "Tx4oXB4pUR0vXukyIOnbY+/1FuAaHw3rSu8aHA3rSu8aHA3rSu8aHA4aHA3rSu8aHA3rSu8aSr" x = "68," y = "494," width = "68," height = "66," />
<toolpath name-id = "w19" style = "fill:none; stroke:Black; stroke-width:1" toolpath-config = "Tx4oXB4pUR0vXukyIenbY+/1FuAaHw3rSu8aHA3rSu8aHA3rSu8aHA4aHA3rSu8aHA3rSu8aSr" x = "74," y = "598," width = "68," height = "66," />
<toolpath name-id = "w20" style = "fill:none; stroke:Black; stroke-width:1" toolpath-config = "Tx4oXB4pUR0vXukyIunbY+/1FuAaHw3rSu8aHA3rSu8aHA3rSu8aHA4aHA3rSu8aHA3rSu8aSr" x = "70," y = "706," width = "68," height = "66," />
<toolpath name-id = "w21" style = "fill:none; stroke:Black; stroke-width:1" toolpath-config = "Tx4oXB4pUR0vXukyJ+nbY+/1FuAaHw3rSu8aHA3rSu8aHA3rSu8aHA4aHA3rSu8aHA3rSu8aSr" x = "1182," y = "168," width = "68," height = "66," />
<toolpath name-id = "w22" style = "fill:none; stroke:Black; stroke-width:1" toolpath-config = "Tx4oXB4pUR0vXukyJOnbY+/1FuAaHw3rSu8aHA3rSu8aHA3rSu8aHA4aHA3rSu8aHA3rSu8aSr" x = "1188," y = "282," width = "68," height = "66," />
<toolpath name-id = "w23" style = "fill:none; stroke:Black; stroke-width:1" toolpath-config = "Tx4oXB4pUR0vXukyHO72DCLsJdnsSuIaHA3rSu8aHA3rSu8aHA3rSu8aSu8aHA3rSu8aHA3rSw3" x = "1200," y = "402," width = "68," height = "66," />
<toolpath name-id = "w24" style = "fill:none; stroke:Black; stroke-width:1" toolpath-config = "Tx4oXB4pUR0vXukyHO/2DCLsJdnsSuIaHA3rSu8aHA3rSu8aHA3rSu8aSu8aHA3rSu8aHA3rSw3" x = "1206," y = "512," width = "68," height = "66," />
<toolpath name-id = "w25" style = "fill:none; stroke:Black; stroke-width:1" toolpath-config = "Tx4oXB4pUR0vXukyHOD2DCLsJdnsSuIaHA3rSu8aHA3rSu8aHA3rSu8aSu8aHA3rSu8aHA3rSw3" x = "1216," y = "624," width = "68," height = "66," />
<toolpath name-id = "w26" style = "fill:none; stroke:Black; stroke-width:1" toolpath-config = "Tx4oXB4pUR0vXukyHOH2DCLsJdnsSuIaHA3rSu8aHA3rSu8aHA3rSu8aSu8aHA3rSu8aHA3rSw3" x = "1230," y = "764," width = "68," height = "66," />
</svg>
