<?xml version="1.0" standalone="no"?>
<!DOCTYPE svg PUBLIC "-//W3C//DTD SVG 1.0//EN" "http://www.w3.org/TR/2001/REC-SVG-20010904/DTD/svg10.dtd">
<svg width="2498" height="998">
<model></model>
<createtime>2012年4月25日 星期三 17:19</createtime>
<lastmodified>2017年6月26日 15:49</lastmodified>
<designer></designer>
<part_params></part_params>
<pathorder></pathorder>
<tools></tools>
<desc>门板设计</desc>
<rect name-id = "w7" align-attribute = "XyMtUSMeV9wzJe/2DCIvXhQvTxboZOjsJt8uXSQcXhP1H7" style = "fill:none; stroke:Black; stroke-width:1" x = "43.3333358764648," y = "906," width = "2298.66674804688," height = "54," rx = "0," ry = "0," />
<polyline name-id = "w1" align-attribute = "XyMtUSMeV9wzJe/2DCIvXhQvTxboZOkhVScgU+nbWBQhY9wcWBgiWekyJA4nURUvSxUkZBQfSu7pHA32DCEkUxcvGRAnVRYpJiX0SyEkUxcvSxUkZBQfSu7pHA32DCIvTSEvGRAnVRYpJiXsHw4dWyMvWxwaUhgzURMaH9zrSr" style = "fill:none; stroke:Black; stroke-width:1" points = "133,798.8181 144.8928,798.809 156.7869,798.834 168.679,798.9001 180.572,799.017 194.207,799.217 207.8408,799.486 221.4739,799.8181 235.106,800.207 248.738,800.645 262.3679,801.128 275.9979,801.649 289.6279,802.201 316.8859,803.378 371.3989,805.847 398.6559,807.04 419.653,807.905 440.6499,808.729 524.6399,811.896 545.6359,812.726 566.6309,813.598 588.1569,814.5461 652.7319,817.513 674.257,818.465 695.7839,819.36 706.548,819.778 717.3119,820.173 728.0769,820.542 738.8429,820.882 751.8749,821.251 764.908,821.577 777.9419,821.864 790.9769,822.115 804.0129,822.333 817.049,822.524 843.1239,822.834 869.2009,823.075 921.361,823.469 947.4429,823.681 986.1199,824.0681 1024.797,824.491 1063.473,824.876 1082.81,825.032 1102.146,825.152 1121.481,825.2249 1140.815,825.243 1160.148,825.197 1179.479,825.077 1198.808,824.875 1208.472,824.74 1218.136,824.581 1227.798,824.397 1237.461,824.186 1247.122,823.948 1256.783,823.681 1272.162,823.196 1287.538,822.642 1302.914,822.024 1318.288,821.3499 1333.661,820.626 1349.034,819.857 1364.405,819.05 1379.776,818.212 1410.516,816.465 1471.995,812.866 1502.736,811.115 1533.936,809.424 1565.137,807.795 1596.336,806.188 1627.533,804.565 1662.852,802.69 1680.512,801.769 1698.174,800.881 1715.84,800.045 1733.51,799.277 1742.347,798.924 1751.186,798.595 1760.027,798.291 1768.87,798.015 1779.474,797.723 1790.081,797.4641 1811.298,797.008 1832.515,796.572 1843.122,796.3381 1853.726,796.08 1864.327,795.788 1874.925,795.4529 1885.518,795.065 1896.105,794.616 1906.687,794.094 1917.262,793.491 1922.546,793.156 1927.829,792.798 1933.109,792.413 1938.388,792.003 1946.096,791.357 1953.801,790.667 1984.615,787.768 1992.324,787.084 2000.039,786.446 2007.76,785.869 2015.489,785.368 2019.357,785.1511 2023.228,784.959 2027.101,784.793 2030.978,784.655 2034.857,784.548 2038.74,784.473 2042.626,784.4319 2046.516,784.427 2050.409,784.46 2054.307,784.532 2058.209,784.646 2062.115,784.803 2065.45,784.972 2068.787,785.17 2075.469,785.637 2082.157,786.173 2095.535,787.326 2102.218,787.8791 2108.892,788.375 2112.224,788.591 2115.553,788.782 2118.877,788.9421 2122.197,789.069 2125.513,789.157 2128.822,789.2039 2132.126,789.2039 2135.423,789.155 2138.713,789.053 2141.996,788.892 2145.272,788.67 2148.539,788.383 2151.797,788.0261 2155.046,787.596 2158.285,787.0881 2161.515,786.499 2164.733,785.825 2166.339,785.455 2167.941,785.062 " />
<polyline name-id = "w2" align-attribute = "XyMtUSMeV9wzJe/2DCIvXhQvTxboZOkhVScgU+nbWBQhY9wcWBgiWekyJA4nURUvSxUkZBQfSu7pHA32DCEkUxcvGRAnVRYpJiX0SyEkUxcvSxUkZBQfSu7pHA32DBQpU9wcWBgiWekyHOIaYB4rSxUkZBQfSu7pHA3" style = "fill:none; stroke:Black; stroke-width:1" points = "2165.941,672.084 2160.886,672.179 2155.831,672.248 2150.776,672.291 2145.721,672.311 2140.667,672.306 2135.612,672.278 2125.503,672.155 2115.395,671.948 2105.288,671.661 2095.181,671.302 2085.076,670.874 2074.971,670.384 2064.868,669.837 2054.766,669.239 2044.665,668.595 2034.566,667.911 2024.469,667.192 2014.373,666.444 2004.28,665.672 1992.303,664.733 1980.33,663.77 1956.387,661.791 1932.448,659.757 1884.564,655.624 1860.611,653.573 1836.646,651.564 1812.664,649.621 1791.588,647.988 1781.045,647.203 1770.498,646.442 1759.949,645.706 1749.398,644.997 1738.844,644.319 1728.289,643.672 1717.732,643.06 1707.174,642.483 1696.615,641.944 1686.055,641.446 1675.495,640.989 1664.934,640.577 1654.374,640.212 1643.815,639.894 1633.256,639.627 1622.698,639.412 1612.142,639.253 1601.587,639.149 1591.034,639.105 1580.483,639.121 1569.935,639.2 1559.39,639.343 1548.848,639.554 1538.309,639.834 1527.774,640.185 1517.243,640.609 1506.717,641.108 1496.194,641.685 1485.677,642.341 1475.165,643.078 1466.709,643.732 1458.256,644.437 1449.806,645.191 1441.36,645.991 1432.916,646.836 1424.475,647.722 1416.036,648.647 1407.599,649.609 1399.165,650.605 1390.732,651.633 1382.301,652.689 1373.872,653.772 1357.017,656.008 1340.166,658.319 1323.317,660.687 1306.469,663.091 1272.771,667.927 1255.917,670.318 1239.058,672.666 1222.193,674.95 1213.758,676.062 1205.32,677.15 1194.289,678.533 1183.253,679.873 1172.214,681.169 1161.172,682.422 1150.125,683.632 1139.076,684.8 1128.023,685.927 1116.967,687.013 1105.908,688.057 1094.846,689.062 1083.781,690.027 1072.714,690.953 1061.644,691.84 1050.572,692.688 1039.497,693.499 1028.42,694.272 1017.341,695.009 1006.261,695.709 995.178,696.373 984.0939,697.002 973.0079,697.596 961.9199,698.155 950.8309,698.68 939.741,699.1721 928.6499,699.6301 917.5579,700.056 906.465,700.45 895.371,700.812 884.277,701.143 873.1819,701.444 862.0859,701.7141 850.991,701.9539 832.1189,702.2961 813.2469,702.555 794.3739,702.737 775.501,702.842 756.6289,702.875 737.7559,702.837 718.8829,702.733 700.0109,702.565 681.1389,702.336 662.2679,702.05 643.397,701.708 624.527,701.314 605.658,700.872 586.7899,700.383 567.923,699.852 549.0569,699.28 533.7079,698.788 518.3599,698.271 503.012,697.73 487.6659,697.165 472.3209,696.576 456.976,695.9631 441.632,695.3279 426.2889,694.669 410.9479,693.987 395.6069,693.283 364.928,691.806 334.252,690.24 303.5809,688.588 260.428,686.17 238.853,684.997 228.0669,684.437 217.28,683.902 206.4939,683.396 195.709,682.924 184.9229,682.492 174.1379,682.104 163.353,681.766 152.5688,681.481 141.7839,681.257 131,681.096 " />
<polyline name-id = "w3" align-attribute = "XyMtUSMeV9wzJe/2DCIvXhQvTxboZOkhVScgU+nbWBQhY9wcWBgiWekyJA4nURUvSxUkZBQfSu7pHA32DCEkUxcvGRAnVRYpJiX0SxsgUiMaUhgzURMaH9zrSunbXyMcXiLoTRskUxz1Yu/tSxEqYCMqWQ4hVScgUA3rGe8a" style = "fill:none; stroke:Black; stroke-width:1" points = "131,504.221 142.324,505.497 153.646,506.743 176.283,509.191 198.908,511.6581 210.2139,512.9291 221.5168,514.239 230.3418,515.297 239.165,516.381 256.804,518.61 292.0729,523.173 309.7089,525.4281 318.5299,526.531 327.3519,527.6119 336.1759,528.6659 345.0029,529.6859 353.8329,530.67 362.6669,531.611 369.9929,532.3561 377.3209,533.0719 384.6509,533.76 391.9839,534.424 406.6549,535.6891 421.3319,536.8881 436.0129,538.042 465.382,540.299 480.0669,541.4459 500.1329,543.066 540.2589,546.3871 560.3219,548.014 570.3539,548.8041 580.387,549.5719 590.4219,550.3141 600.4569,551.024 610.4939,551.6991 620.5319,552.3341 630.5729,552.924 640.6149,553.4659 651.371,553.9879 662.1289,554.455 672.8899,554.8729 683.652,555.2479 694.4159,555.587 705.1819,555.896 726.7159,556.448 769.793,557.465 791.3309,558.031 802.1,558.349 812.8669,558.7001 846.1379,559.8971 854.455,560.162 862.772,560.391 871.0889,560.569 879.4069,560.6859 885.2729,560.726 891.1389,560.733 897.0059,560.7111 902.8729,560.6649 914.6069,560.516 926.3419,560.318 938.0789,560.104 949.8159,559.9071 961.554,559.7589 967.423,559.714 973.293,559.693 979.7369,559.702 986.1809,559.744 992.6249,559.8141 999.069,559.911 1011.959,560.1749 1024.848,560.514 1037.738,560.906 1076.402,562.1901 1089.287,562.583 1102.171,562.924 1115.053,563.191 1121.492,563.2899 1127.932,563.3619 1134.37,563.406 1140.808,563.417 1147.244,563.3949 1153.68,563.3351 1160.116,563.235 1166.55,563.0929 1172.983,562.906 1179.415,562.671 1185.577,562.4 1191.738,562.0851 1197.898,561.729 1204.057,561.3361 1210.215,560.9081 1216.372,560.4469 1222.529,559.9569 1228.684,559.4401 1240.992,558.338 1253.297,557.162 1265.598,555.9349 1277.896,554.6801 1303.558,552.031 1329.21,549.349 1354.854,546.629 1380.494,543.8671 1408.22,540.8241 1435.942,537.714 1463.659,534.527 1477.514,532.901 1491.367,531.2521 1537.886,525.611 1553.393,523.7479 1568.905,521.922 1584.421,520.15 1599.945,518.4491 1607.71,517.63 1615.477,516.8351 1623.989,515.995 1632.504,515.1859 1641.022,514.411 1649.542,513.6691 1658.065,512.962 1666.59,512.2909 1675.118,511.6549 1683.648,511.057 1692.18,510.496 1700.714,509.974 1709.249,509.492 1717.786,509.05 1726.325,508.648 1734.865,508.289 1743.406,507.972 1751.948,507.698 1762.614,507.417 1773.282,507.193 1783.951,507.015 1794.62,506.871 1837.299,506.4081 1849.302,506.246 1885.308,505.683 1897.31,505.502 1909.312,505.341 1921.315,505.2091 1933.318,505.117 1943.396,505.077 1953.474,505.08 1963.551,505.132 1973.629,505.242 1983.705,505.417 1993.781,505.6649 2002.608,506 2008.891,506.1891 2013.926,506.4081 2019.798,506.693 2025.669,507.011 2031.538,507.364 2037.406,507.752 2043.272,508.175 2049.135,508.635 2054.996,509.133 2060.854,509.669 2066.709,510.244 2072.56,510.86 2078.407,511.516 2084.251,512.215 2090.089,512.9559 2095.923,513.74 2101.752,514.5699 2107.576,515.444 2111.223,516.017 2114.868,516.614 2118.511,517.2421 2122.154,517.9071 2125.796,518.615 2129.438,519.3729 2133.081,520.188 2136.724,521.0641 2140.368,522.01 2144.013,523.0299 2147.661,524.132 2151.31,525.3219 2153.136,525.951 2154.963,526.6051 2156.79,527.2841 2158.619,527.989 2160.448,528.7211 2162.278,529.4801 2164.109,530.267 2165.941,531.0841 " />
<polyline name-id = "w4" align-attribute = "XyMtUSMeV9wzJe/2DCIvXhQvTxboZOkhVScgU+nbWBQhY9wcWBgiWekyJA4nURUvSxUkZBQfSu7pHA32DCEkUxcvGRAnVRYpJiX0SyEkUxcvSxUkZBQfSu7pHA32DBQpU9wcWBgiWekyHOEaYB4rSxUkZBQfSu7pHA3" style = "fill:none; stroke:Black; stroke-width:1" points = "2165.941,395.334 2162.395,395.551 2158.847,395.74 2155.299,395.904 2151.75,396.042 2148.201,396.157 2144.65,396.249 2137.548,396.368 2130.442,396.4081 2123.335,396.379 2116.225,396.289 2109.114,396.147 2102.001,395.961 2094.887,395.741 2080.657,395.232 2066.424,394.689 2052.192,394.183 2042.41,393.889 2032.629,393.643 2022.849,393.445 2013.071,393.293 2001.941,393 1993.516,393.121 1983.74,393.097 1973.964,393.114 1964.19,393.169 1954.416,393.26 1944.644,393.387 1934.872,393.548 1925.1,393.742 1915.33,393.966 1905.56,394.22 1895.791,394.501 1886.023,394.809 1876.255,395.142 1856.721,395.876 1837.189,396.692 1817.66,397.577 1798.133,398.519 1778.607,399.507 1759.083,400.529 1739.56,401.572 1714.001,402.956 1688.444,404.371 1662.891,405.828 1637.341,407.342 1611.796,408.925 1599.026,409.747 1586.256,410.592 1573.489,411.461 1560.722,412.356 1547.958,413.278 1535.195,414.23 1522.433,415.213 1509.674,416.228 1496.916,417.277 1484.16,418.363 1471.407,419.486 1458.655,420.648 1445.906,421.852 1433.159,423.098 1420.414,424.388 1407.672,425.725 1394.932,427.109 1382.195,428.542 1369.46,430.027 1356.728,431.565 1343.999,433.156 1331.273,434.805 1313.994,437.122 1296.718,439.4679 1288.079,440.627 1279.441,441.764 1270.801,442.868 1262.16,443.931 1253.518,444.943 1244.874,445.893 1236.227,446.7721 1227.578,447.57 1223.252,447.9359 1218.925,448.278 1214.598,448.5951 1210.269,448.885 1205.94,449.148 1201.61,449.382 1197.278,449.586 1192.946,449.7589 1188.974,449.889 1185.002,449.993 1181.028,450.071 1177.054,450.1239 1173.079,450.153 1169.104,450.159 1161.151,450.104 1153.195,449.966 1145.238,449.75 1137.278,449.464 1129.318,449.1129 1121.357,448.704 1113.395,448.243 1105.433,447.737 1097.471,447.192 1089.51,446.614 1081.55,446.0089 1065.634,444.748 1040.183,442.6649 1014.749,440.573 1002.036,439.542 989.324,438.534 976.6139,437.555 963.9049,436.6129 951.1949,435.716 938.4849,434.873 925.7729,434.0919 913.059,433.379 900.3429,432.744 887.6229,432.195 881.2609,431.955 874.8989,431.739 868.5349,431.548 862.1699,431.3839 856.0369,431.2511 849.902,431.139 837.632,430.966 813.0839,430.7101 800.8099,430.567 788.5369,430.3739 782.402,430.2489 776.267,430.099 770.1329,429.922 764.001,429.714 754.5859,429.327 745.173,428.865 735.7629,428.338 726.3549,427.755 716.949,427.125 707.5439,426.4569 688.7379,425.044 669.9329,423.59 651.126,422.1681 641.7209,421.4911 632.3149,420.85 622.908,420.254 613.4979,419.711 605.444,419.294 597.3889,418.92 589.3319,418.584 581.2729,418.283 573.2139,418.013 565.153,417.771 549.0299,417.352 532.903,416.997 500.6479,416.358 484.5199,416.014 463.725,415.496 442.9319,414.899 422.142,414.237 401.3539,413.525 380.5669,412.778 318.2079,410.47 294.809,409.633 271.4099,408.822 224.6079,407.269 177.8049,405.784 131,404.346 " />
<polyline name-id = "w5" align-attribute = "XyMtUSMeV9wzJe/2DCIvXhQvTxboZOkhVScgU+nbWBQhY9wcWBgiWekyJA4nURUvSxUkZBQfSu7pHA32DCEkUxcvGRAnVRYpJiX0SyEkUxcvSxUkZBQfSu7pHA32DCIvTSEvGRAnVRYpJiXzSxEqYCMqWQ4hVScgUA3rGe8a" style = "fill:none; stroke:Black; stroke-width:1" points = "131,272.399 141.8718,272.286 152.7988,272.212 163.7209,272.178 174.6389,272.182 185.554,272.223 196.4668,272.301 207.3779,272.412 218.2878,272.557 232.0049,272.784 245.7209,273.059 259.4379,273.377 273.153,273.736 286.8679,274.131 300.5829,274.56 314.2969,275.018 328.0109,275.503 355.4379,276.538 382.8649,277.637 469.6859,281.249 485.6689,281.94 501.6489,282.664 517.627,283.436 533.6029,284.269 549.574,285.177 557.5579,285.663 565.5409,286.173 579.366,287.112 593.189,288.105 620.8309,290.169 634.6509,291.196 648.4739,292.19 662.299,293.129 676.1279,293.993 684.647,294.479 693.168,294.929 701.6899,295.347 710.2139,295.734 718.7389,296.091 727.2659,296.422 735.793,296.727 744.3209,297.01 761.3799,297.514 778.4419,297.951 795.5039,298.336 812.5659,298.685 829.225,299.004 845.8829,299.297 862.5409,299.558 879.2,299.779 895.8589,299.953 912.5179,300.072 929.179,300.13 945.8419,300.12 958.4259,300.062 971.0099,299.958 983.5939,299.805 996.178,299.6 1008.761,299.339 1021.343,299.02 1033.923,298.64 1046.501,298.195 1059.077,297.684 1071.649,297.101 1084.218,296.446 1096.782,295.713 1109.342,294.902 1121.897,294.008 1134.447,293.028 1146.99,291.961 1155.476,291.187 1163.959,290.376 1172.44,289.534 1180.919,288.664 1197.871,286.863 1214.818,285.011 1231.763,283.15 1248.707,281.317 1257.18,280.424 1265.653,279.552 1274.128,278.708 1282.604,277.895 1295.168,276.757 1307.738,275.697 1320.315,274.713 1332.899,273.803 1345.493,272.966 1358.098,272.198 1370.715,271.497 1383.346,270.862 1395.645,270.306 1407.951,269.809 1420.256,269.37 1432.553,268.991 1444.834,268.669 1457.091,268.406 1469.317,268.199 1481.503,268.049 1492.768,267.961 1504.003,267.916 1515.218,267.913 1526.422,267.947 1537.625,268.013 1548.838,268.109 1571.331,268.373 1593.981,268.708 1640.066,269.464 1663.66,269.824 1683.552,270.086 1703.687,270.31 1723.985,270.495 1744.364,270.641 1764.743,270.745 1785.041,270.808 1805.176,270.828 1825.067,270.803 1844.632,270.734 1863.791,270.618 1882.462,270.455 1900.563,270.244 1918.014,269.984 1934.733,269.674 1950.638,269.312 1965.649,268.898 1986.274,268 1999.047,267.873 2005.112,267.732 2011.497,267.61 2018.268,267.511 2025.491,267.438 2033.233,267.395 2041.56,267.386 2050.538,267.415 2060.235,267.485 2070.715,267.601 2082.046,267.766 2093.226,267.968 2104.859,268.236 2110.744,268.401 2116.619,268.59 2122.445,268.807 2128.181,269.053 2133.786,269.331 2139.219,269.644 2144.44,269.995 2149.409,270.385 2154.084,270.818 2158.424,271.297 2160.457,271.554 2162.39,271.823 2164.22,272.105 2165.941,272.4 " />
<polyline name-id = "w6" align-attribute = "XyMtUSMeV9wzJe/2DCIvXhQvTxboZOkhVScgU+nbWBQhY9wcWBgiWekyJA4nURUvSxUkZBQfSu7pHA32DCEkUxcvGRAnVRYpJiX0SyEkUxcvSxUkZBQfSu7pHA32DCIvTSEvGRAnVRYpJiX0SyMqXA4hVScgUA3rGe8aJt8gWhLoTRskUxz1YucaYB4rSxUkZBQfSu7pHA3" style = "fill:none; stroke:Black; stroke-width:1" points = "2165.941,149.4 2161.738,148.741 2157.535,148.112 2153.331,147.511 2149.127,146.94 2144.923,146.396 2140.719,145.881 2136.514,145.394 2132.31,144.934 2128.105,144.501 2123.901,144.095 2119.696,143.716 2115.491,143.363 2111.286,143.036 2107.081,142.734 2102.877,142.458 2098.672,142.206 2094.468,141.98 2090.263,141.778 2086.059,141.599 2081.855,141.445 2077.651,141.314 2073.448,141.206 2065.041,141.059 2056.636,141 2048.233,141.027 2039.831,141.139 2031.432,141.331 2026.345,141.487 2021.259,141.669 2016.174,141.878 2011.089,142.111 2000.921,142.645 1990.756,143.259 1979.941,144 1970.43,144.682 1960.269,145.467 1950.109,146.286 1909.469,149.662 1899.307,150.473 1889.144,151.246 1878.98,151.971 1868.813,152.635 1861.579,153.065 1854.344,153.461 1847.108,153.822 1839.87,154.152 1832.632,154.451 1825.393,154.721 1818.153,154.964 1810.911,155.18 1803.67,155.372 1796.427,155.54 1781.94,155.814 1767.45,156.013 1752.958,156.149 1738.464,156.234 1723.97,156.28 1694.978,156.303 1665.986,156.312 1651.491,156.342 1636.997,156.403 1625.638,156.481 1614.279,156.585 1602.921,156.714 1591.564,156.868 1580.208,157.045 1568.852,157.246 1546.143,157.712 1523.437,158.26 1500.732,158.883 1478.028,159.573 1455.326,160.324 1432.625,161.129 1409.923,161.981 1387.222,162.874 1364.52,163.801 1319.114,165.727 1243.922,169.005 1214.139,170.276 1184.353,171.492 1169.459,172.072 1154.566,172.627 1139.672,173.155 1124.778,173.653 1109.884,174.117 1094.99,174.544 1080.096,174.93 1065.203,175.272 1050.31,175.566 1035.418,175.81 1016.576,176.041 1002.526,176.153 988.4769,176.21 974.429,176.209 960.382,176.148 946.335,176.024 932.2899,175.833 918.246,175.574 904.2029,175.243 895.9779,175.015 887.7539,174.762 879.5299,174.485 871.3059,174.186 854.8599,173.524 838.4159,172.782 821.9719,171.969 805.5309,171.092 789.09,170.16 772.6499,169.179 756.2109,168.157 739.7729,167.102 706.8979,164.926 674.0249,162.711 641.152,160.518 620.0869,159.153 599.0209,157.826 577.9539,156.544 556.8849,155.311 535.8149,154.132 514.7429,153.011 493.668,151.954 472.59,150.964 457.2759,150.29 441.9609,149.653 426.6439,149.053 411.325,148.489 396.0049,147.96 380.684,147.465 365.3619,147.003 350.0389,146.574 334.715,146.176 319.3899,145.809 304.0649,145.472 288.7389,145.164 273.413,144.885 258.0859,144.632 242.759,144.407 227.4309,144.207 215.377,144.069 203.323,143.956 191.2688,143.875 179.2148,143.836 167.1609,143.848 155.1069,143.919 143.053,144.058 131,144.275 " />
<line name-id = "w8" align-attribute = "XyMtUSMeV9wzJhUkZBQfJt8uYCEgYBIjGSf1HOnbWBQhY9wcWBgiWekyIw4nURUvSxUkZBQfStvsIg32DCMqX9wcWBgiWekyHOEaYB4rSxUkZBQfSu7pHA3jH9zuFdMfYtf2DBEqYCMqWNwcWBgiWekyHOEaYB4rSxUkZBQfSu7pHA3jH9zsINjfUCXk" style = "fill:none; stroke:Black; stroke-width:1" x1 = "70," y1 = "172," x2 = "70," y2 = "260," />
<line name-id = "w9" align-attribute = "XyMtUSMeV9wzJhUkZBQfJt8uYCEgYBIjGSf1HOnbXhgiVCLoTRskUxz1YuYaXhgiVCMaUhgzURMaHOUaJt8vWy7oTRskUxz1YuUaXyMcXiMaUhgzURMaH9zrSunbTh4vYB4oGRAnVRYpJiXwSxQpUA4hVScgUA3rGe8a" style = "fill:none; stroke:Black; stroke-width:1" x1 = "2206," y1 = "146," x2 = "2206," y2 = "248," />
<toolpath name-id = "w10" style = "fill:none; stroke:Black; stroke-width:1" toolpath-config = "Tx4oXB4pUR0vXukyIunbWyQvWBgpUOjsJt8vHOjmHQ3rSu8aHA3rSu8aHA3rSu8aHA3rSw3rSu8aHA3rSu8aHA4a" x = "104," y = "76," width = "104," height = "36," />
<toolpath name-id = "w11" align-attribute = "XyMtUSMeV9wzJe/2DCIvXhQvTxboZOjs" style = "fill:none; stroke:Black; stroke-width:1" toolpath-config = "Tx4oXB4pUR0vXukyJCXxYugyIOnbY+T1FuAaHdztSu/xSu8aIO8aHA3rSu8aHA3rSu8aSu8aHA3rSu8aHA3rSw3" x = "122," y = "190," width = "202," height = "48," />
<line name-id = "w12" align-attribute = "XyMtUSMeV9wzJhUkZBQfJt8uYCEgYBIjGSf1HOnbWBQhY9wcWBgiWekyJA4nURUvSxUkZBQfSu7pHA32DCMqX9wcWBgiWekyHOIaYB4rSxUkZBQfSu7pHA3jH9zuHuXwFdMfYtf2DBEqYCMqWNwcWBgiWekyHOIaYB4rSxUkZBQfSu8aF+7pHePlEBMyFL" style = "fill:none; stroke:Black; stroke-width:1" x1 = "72," y1 = "402," x2 = "72," y2 = "550," />
<line name-id = "w13" align-attribute = "XyMtUSMeV9wzJhUkZBQfJt8uYCEgYBIjGSf1HOnbWBQhY9wcWBgiWekyJA4nURUvSxUkZBQfSu7pHA32DCMqX9wcWBgiWekyIw4dWyMvWxwaUhgzURMaHA3jH9ztHuXwFdMfYtf2DBEqYCMqWNwcWBgiWekyIw4dWyMvWxwaUhgzURMaHA3jH9zsFdMfYtf" style = "fill:none; stroke:Black; stroke-width:1" x1 = "72," y1 = "658," x2 = "72," y2 = "798," />
<line name-id = "w14" align-attribute = "XyMtUSMeV9wzJhUkZBQfJt8uYCEgYBIjGSf1HOnbXhgiVCLoTRskUxz1YugaXhgiVCMaUhgzURMaH9zrSunbYB4rGRAnVRYpJiXvSyIvTSEvSxUkZBQfSu7pHA32DBEqYCMqWNwcWBgiWekyHw4gWhMaUhgzURMaH9zrSr" style = "fill:none; stroke:Black; stroke-width:1" x1 = "2204," y1 = "352," x2 = "2204," y2 = "522," />
<line name-id = "w15" align-attribute = "XyMtUSMeV9wzJhUkZBQfJt8uYCEgYBIjGSf1HOnbXhgiVCLoTRskUxz1YugaXhgiVCMaUhgzURMaH9zrSunbYB4rGRAnVRYpJiXtSyIvTSEvSxUkZBQfSu7pHA32DBEqYCMqWNwcWBgiWekyHQ4gWhMaUhgzURMaH9zrSr" style = "fill:none; stroke:Black; stroke-width:1" x1 = "2206," y1 = "624," x2 = "2206," y2 = "822," />
<toolpath name-id = "w16" align-attribute = "XyMtUSMeV9wzJe/2DCIvXhQvTxboZOjs" style = "fill:none; stroke:Black; stroke-width:1" toolpath-config = "Tx4oXB4pUR0vXukyHOEyICXsICXuJt8vIejmHQ3tGeEaHOUaHA3wHA3rSu8aHA3rSu8aHA4aHA3rSu8aHA3rSu8aSr" x = "134," y = "434," width = "164," height = "56," />
<toolpath name-id = "w17" align-attribute = "XyMtUSMeV9wzJe/2DCIvXhQvTxboZOjs" style = "fill:none; stroke:Black; stroke-width:1" toolpath-config = "Tx4oXB4pUR0vXukyHOIyHiXsISXsJt8vIejmHQ3tGeEaHOUaHA3wHA3rSu8aHA3rSu8aHA4aHA3rSu8aHA3rSu8aSr" x = "138," y = "716," width = "156," height = "36," />
</svg>
