<?xml version="1.0" standalone="no"?>
<!DOCTYPE svg PUBLIC "-//W3C//DTD SVG 1.0//EN" "http://www.w3.org/TR/2001/REC-SVG-20010904/DTD/svg10.dtd">
<svg width="2490" height="990">
<model></model>
<createtime>2017年6月29日 9:52</createtime>
<lastmodified>2017年7月21日 17:50</lastmodified>
<designer></designer>
<part_params></part_params>
<pathorder></pathorder>
<tools></tools>
<desc>门板设计</desc>
<rect name-id = "w1" align-attribute = "XyMtUSMeV9wzJe/2DCIvXhQvTxboZOjsJt8uXSQcXhP1H7" style = "fill:none; stroke:Black; stroke-width:1" x = "56," y = "78," width = "1242," height = "128," rx = "0," ry = "0," />
<line name-id = "w2" align-attribute = "XyMtUSMeV9wzJe/2DCIvXhQvTxboZOkhVScgU+nbWBQhY9wcWBgiWekyHQ4tVRYjYA4hVScgUA3rGe8aGNbfUBroHO7yH9f2DCEkUxcvGRAnVRYpJiXuSxsgUiMaUhgzURMaH9zrSunbYB4rGRAnVRYpJiXxSyMqXA4hVScgUA3rGe8a" style = "fill:none; stroke:Black; stroke-width:1" x1 = "626," y1 = "336," x2 = "1196," y2 = "336," />
<line name-id = "w3" align-attribute = "XyMtUSMeV9wzJhUkZBQfJt8uYCEgYBIjGSf1HOnbXhgiVCLoTRskUxz1YuAaXhgiVCMaUhgzURMaGOPuSunbYB4rGRAnVRYpJiXtSyMqXA4hVScgUA3rGe8aJt8dWyMvWxvoTRskUxz1YuMaTh4vYB4oSxUkZBQfSu7pHA3" style = "fill:none; stroke:Black; stroke-width:1" x1 = "1194," y1 = "346," x2 = "1194," y2 = "694," />
<line name-id = "w4" align-attribute = "XyMtUSMeV9wzJe/2DCIvXhQvTxboZOkhVScgU+nbWBQhY9wcWBgiWekyIQ4nURUvSxUkZBQfSu7pHA32DCEkUxcvGRAnVRYpJiXuSxsgUiMaUhgzURMaH9zrSunbTh4vYB4oGRAnVRYpJiXsSxEqYCMqWQ4hVScgUA3wHw3" style = "fill:none; stroke:Black; stroke-width:1" x1 = "140," y1 = "710," x2 = "1198," y2 = "710," />
<line name-id = "w5" align-attribute = "XyMtUSMeV9wzJhUkZBQfJt8uYCEgYBIjGSf1HOnbWBQhY9wcWBgiWekyHQ4nURUvSxUkZBQfSuPuSunbYB4rGRAnVRYpJiXxSyMqXA4hVScgUA3rGe8aJt8dWyMvWxvoTRskUxz1YuMaTh4vYB4oSxUkZBQfSu7pHA3" style = "fill:none; stroke:Black; stroke-width:1" x1 = "130," y1 = "368," x2 = "130," y2 = "702," />
<line name-id = "w6" align-attribute = "XyMtUSMeV9wzJe/2DCIvXhQvTxboZOkhVScgU+nbWBQhY9wcWBgiWekyIQ4nURUvSxUkZBQfSu7pHA32DCEkUxcvGRAnVRYpJiXySxsgUiMaUhgzURMaH9zrSunbYB4rGRAnVRYpJiXsSyMqXA4hVScgUA3oIOIa" style = "fill:none; stroke:Black; stroke-width:1" x1 = "134," y1 = "342," x2 = "430," y2 = "342," />
<ellipse name-id = "w7" align-attribute = "XyMtUSMeV9wzJhUkZBQfJt8uYCEgYBIjGSf1UhgzURL2DCIsYRAtUOjrJt8zTxQpYBQtGRAnVRYpJiXsSxsgUiMaUhgzURMaIuPrSunbZRIgWiMgXdwcWBgiWekyIg4vWy8aUhgzURMaH9zrSr" style = "fill:none; stroke:Black; stroke-width:1" x = "434," y = "312," width = "53," height = "53," />
<ellipse name-id = "w8" align-attribute = "XyMtUSMeV9wzJhUkZBQfJt8uYCEgYBIjGSf1UhgzURL2DCIsYRAtUOjrJt8tVRYjY9wcWBgiWekyHg4nURUvSxUkZBQfSu7pHA32DCMqX9wcWBgiWekyIw4vWy8aUhgzURMaH9zrSr" style = "fill:none; stroke:Black; stroke-width:1" x = "566," y = "312," width = "53," height = "53," />
<toolpath name-id = "w9" style = "fill:none; stroke:Black; stroke-width:1" toolpath-config = "Tx4oXB4pUR0vXukyHOnbWyQvWBgpUOjsJt8vHOjmHQ3rSu8aHA3rSu8aHA3rSu8aHA3rSw3rSu8aHA3rSu8aHA4a" x = "92," y = "128," width = "56," height = "48," />
<toolpath name-id = "w10" style = "fill:none; stroke:Black; stroke-width:1" toolpath-config = "Tx4oXB4pUR0vXukyHiXuYuMyISXxJt8vHejmHQ3tSu8aHA3rSu8aHA3rSu8aHA3rSw3rSu8aHA3rSu8aHA4a" x = "682," y = "522," width = "180," height = "48," />
<toolpath name-id = "w11" style = "fill:none; stroke:Black; stroke-width:1" toolpath-config = "Tx4oXB4pUR0vXukyHOH2DCLwJdnsSuEaHOAaHA3rSu8aHA3rSu8aHA3rSw3rSu8aHA3rSu8aHA4a" x = "390," y = "244," width = "70," height = "54," />
<toolpath name-id = "w12" style = "fill:none; stroke:Black; stroke-width:1" toolpath-config = "Tx4oXB4pUR0vXukyHOL2DCLwJdnsSuEaHOAaHA3rSu8aHA3rSu8aHA3rSw3rSu8aHA3rSu8aHA4a" x = "550," y = "246," width = "70," height = "54," />
<polyline name-id = "w13" align-attribute = "XyMtUSMeV9wzJhUkZBQfJt8uYCEgYBIjGSf1UhgzURL2DBsgUiLoTRskUxz1YuYaWBQhYA4hVScgUA3rGe8aJt8vWy7oTRskUxz1YuYaYB4rSxUkZBQfSu7pHA3" style = "fill:none; stroke:Black; stroke-width:1" points = "477.999,455.499 477.994,454.984 477.979,454.468 477.954,453.953 477.919,453.439 477.874,452.926 477.819,452.413 477.754,451.902 477.679,451.392 477.594,450.883 477.499,450.377 477.394,449.872 477.28,449.369 477.156,448.869 477.022,448.371 476.879,447.876 476.726,447.384 476.563,446.895 476.391,446.409 476.209,445.926 476.018,445.447 475.818,444.972 475.609,444.501 475.39,444.034 475.163,443.572 474.926,443.114 474.681,442.66 474.427,442.212 474.164,441.768 473.893,441.33 473.613,440.897 473.325,440.47 473.028,440.048 472.724,439.632 472.411,439.222 472.091,438.819 471.762,438.421 471.426,438.031 471.083,437.646 470.732,437.269 470.373,436.898 470.008,436.534 469.636,436.178 469.256,435.829 468.87,435.487 468.478,435.153 468.079,434.827 467.674,434.508 467.262,434.197 466.845,433.895 466.422,433.6 465.993,433.314 465.559,433.037 465.119,432.767 464.674,432.507 464.225,432.255 463.77,432.012 463.311,431.777 462.847,431.552 462.379,431.336 461.907,431.129 461.431,430.931 460.952,430.742 460.468,430.563 459.982,430.393 459.492,430.233 458.999,430.083 458.503,429.941 458.004,429.81 457.503,429.688 457,429.577 456.495,429.474 455.988,429.382 455.479,429.3 454.969,429.227 454.457,429.165 453.944,429.112 453.43,429.07 452.916,429.037 452.401,429.015 451.886,429.002 451.37,429 450.855,429.007 450.34,429.025 449.825,429.052 449.311,429.09 448.797,429.137 448.285,429.195 447.774,429.262 447.264,429.34 446.756,429.427 446.25,429.524 445.746,429.631 445.244,429.748 444.744,429.875 444.247,430.011 443.753,430.157 443.261,430.312 442.773,430.477 442.288,430.652 441.806,430.836 441.328,431.029 440.854,431.231 440.384,431.443 439.918,431.664 439.457,431.893 439,432.132 438.548,432.38 438.101,432.636 437.658,432.901 437.221,433.174 436.79,433.456 436.364,433.747 435.944,434.045 435.529,434.352 435.121,434.666 434.719,434.989 434.323,435.319 433.934,435.657 433.551,436.002 433.175,436.355 432.806,436.715 432.445,437.082 432.09,437.457 431.743,437.838 431.403,438.225 431.071,438.619 430.746,439.02 430.43,439.427 430.121,439.84 429.82,440.258 429.528,440.683 429.244,441.113 428.968,441.549 428.701,441.99 428.443,442.436 428.193,442.886 427.952,443.342 427.72,443.803 427.497,444.267 427.283,444.736 427.079,445.209 426.883,445.686 426.697,446.167 426.52,446.651 426.353,447.139 426.195,447.629 426.046,448.123 425.908,448.62 425.779,449.119 425.66,449.62 425.55,450.124 425.45,450.63 425.361,451.137 425.281,451.647 425.211,452.157 425.151,452.669 425.101,453.182 425.061,453.696 425.031,454.211 425.011,454.726 425,455.241 425,455.757 425.011,456.272 425.031,456.787 425.061,457.302 425.101,457.816 425.151,458.329 425.211,458.841 425.281,459.351 425.361,459.861 425.45,460.368 425.55,460.874 425.66,461.378 425.779,461.879 425.908,462.378 426.046,462.875 426.195,463.369 426.353,463.859 426.52,464.347 426.697,464.831 426.883,465.312 427.079,465.789 427.283,466.262 427.497,466.731 427.72,467.195 427.952,467.656 428.193,468.112 428.443,468.562 428.701,469.008 428.968,469.449 429.244,469.885 429.528,470.315 429.82,470.74 430.121,471.158 430.43,471.571 430.746,471.978 431.071,472.379 431.403,472.773 431.743,473.16 432.09,473.541 432.445,473.916 432.806,474.283 433.175,474.643 433.551,474.996 433.934,475.341 434.323,475.679 434.719,476.009 435.121,476.332 435.529,476.646 435.944,476.953 436.364,477.251 436.79,477.542 437.221,477.824 437.658,478.097 438.101,478.362 438.548,478.618 439,478.866 439.457,479.105 439.918,479.334 440.384,479.555 440.854,479.767 441.328,479.969 441.806,480.162 442.288,480.346 442.773,480.521 443.261,480.686 443.753,480.841 444.247,480.987 444.744,481.123 445.244,481.25 445.746,481.367 446.25,481.474 446.756,481.571 447.264,481.658 447.774,481.736 448.285,481.803 448.797,481.861 449.311,481.908 449.825,481.946 450.34,481.973 450.855,481.991 451.37,481.998 451.886,481.996 452.401,481.983 452.916,481.961 453.43,481.928 453.944,481.886 454.457,481.833 454.969,481.771 455.479,481.698 455.988,481.616 456.495,481.524 457,481.422 457.503,481.31 458.004,481.188 458.503,481.057 458.999,480.915 459.492,480.765 459.982,480.605 460.468,480.435 460.952,480.256 461.431,480.067 461.907,479.869 462.379,479.662 462.847,479.446 463.311,479.221 463.77,478.986 464.225,478.743 464.674,478.491 465.119,478.231 465.559,477.961 465.993,477.684 466.422,477.398 466.845,477.103 467.262,476.801 467.674,476.49 468.079,476.171 468.478,475.845 468.87,475.511 469.256,475.169 469.636,474.82 470.008,474.464 470.373,474.1 470.732,473.729 471.083,473.352 471.426,472.968 471.762,472.577 472.091,472.179 472.411,471.776 472.724,471.366 473.028,470.95 473.325,470.528 473.613,470.101 473.893,469.668 474.164,469.23 474.427,468.786 474.681,468.338 474.926,467.884 475.163,467.426 475.39,466.964 475.609,466.497 475.818,466.026 476.018,465.551 476.209,465.072 476.391,464.589 476.563,464.103 476.726,463.614 476.879,463.122 477.022,462.627 477.156,462.129 477.28,461.629 477.394,461.126 477.499,460.621 477.594,460.115 477.679,459.606 477.754,459.096 477.819,458.585 477.874,458.072 477.919,457.559 477.954,457.045 477.979,456.53 477.994,456.014 477.999,455.499 " />
<polyline name-id = "w14" align-attribute = "XyMtUSMeV9wzJhUkZBQfJt8uYCEgYBIjGSf1UhgzURL2DBsgUiLoTRskUxz1YucaWBQhYA4hVScgUA3rGe8aJt8vWy7oTRskUxz1YucaYB4rSxUkZBQfSu7pHA3" style = "fill:none; stroke:Black; stroke-width:1" points = "645.999,461.499 645.994,460.984 645.979,460.468 645.954,459.953 645.919,459.439 645.874,458.926 645.819,458.413 645.754,457.902 645.679,457.392 645.594,456.883 645.499,456.377 645.394,455.872 645.28,455.369 645.156,454.869 645.022,454.371 644.879,453.876 644.726,453.384 644.563,452.895 644.391,452.409 644.209,451.926 644.018,451.447 643.818,450.972 643.609,450.501 643.39,450.034 643.163,449.572 642.926,449.114 642.681,448.66 642.427,448.212 642.164,447.768 641.893,447.33 641.613,446.897 641.325,446.47 641.028,446.048 640.724,445.632 640.411,445.222 640.091,444.819 639.762,444.421 639.426,444.031 639.083,443.646 638.732,443.269 638.373,442.898 638.008,442.534 637.636,442.178 637.256,441.829 636.87,441.487 636.478,441.153 636.079,440.827 635.674,440.508 635.262,440.197 634.845,439.895 634.422,439.6 633.993,439.314 633.559,439.037 633.119,438.767 632.674,438.507 632.225,438.255 631.77,438.012 631.311,437.777 630.847,437.552 630.379,437.336 629.907,437.129 629.431,436.931 628.952,436.742 628.468,436.563 627.982,436.393 627.492,436.233 626.999,436.083 626.503,435.941 626.004,435.81 625.503,435.688 625,435.577 624.495,435.474 623.988,435.382 623.479,435.3 622.969,435.227 622.457,435.165 621.944,435.112 621.43,435.07 620.916,435.037 620.401,435.015 619.886,435.002 619.37,435 618.855,435.007 618.34,435.025 617.825,435.052 617.311,435.09 616.797,435.137 616.285,435.195 615.774,435.262 615.264,435.34 614.756,435.427 614.25,435.524 613.746,435.631 613.244,435.748 612.744,435.875 612.247,436.011 611.753,436.157 611.261,436.312 610.773,436.477 610.288,436.652 609.806,436.836 609.328,437.029 608.854,437.231 608.384,437.443 607.918,437.664 607.457,437.893 607,438.132 606.548,438.38 606.101,438.636 605.658,438.901 605.221,439.174 604.79,439.456 604.364,439.747 603.944,440.045 603.529,440.352 603.121,440.666 602.719,440.989 602.323,441.319 601.934,441.657 601.551,442.002 601.175,442.355 600.806,442.715 600.445,443.082 600.09,443.457 599.743,443.838 599.403,444.225 599.071,444.619 598.746,445.02 598.43,445.427 598.121,445.84 597.82,446.258 597.528,446.683 597.244,447.113 596.968,447.549 596.701,447.99 596.443,448.436 596.193,448.886 595.952,449.342 595.72,449.803 595.497,450.267 595.283,450.736 595.079,451.209 594.883,451.686 594.697,452.167 594.52,452.651 594.353,453.139 594.195,453.629 594.046,454.123 593.908,454.62 593.779,455.119 593.66,455.62 593.55,456.124 593.45,456.63 593.361,457.137 593.281,457.647 593.211,458.157 593.151,458.669 593.101,459.182 593.061,459.696 593.031,460.211 593.011,460.726 593,461.241 593,461.757 593.011,462.272 593.031,462.787 593.061,463.302 593.101,463.816 593.151,464.329 593.211,464.841 593.281,465.351 593.361,465.861 593.45,466.368 593.55,466.874 593.66,467.378 593.779,467.879 593.908,468.378 594.046,468.875 594.195,469.369 594.353,469.859 594.52,470.347 594.697,470.831 594.883,471.312 595.079,471.789 595.283,472.262 595.497,472.731 595.72,473.195 595.952,473.656 596.193,474.112 596.443,474.562 596.701,475.008 596.968,475.449 597.244,475.885 597.528,476.315 597.82,476.74 598.121,477.158 598.43,477.571 598.746,477.978 599.071,478.379 599.403,478.773 599.743,479.16 600.09,479.541 600.445,479.916 600.806,480.283 601.175,480.643 601.551,480.996 601.934,481.341 602.323,481.679 602.719,482.009 603.121,482.332 603.529,482.646 603.944,482.953 604.364,483.251 604.79,483.542 605.221,483.824 605.658,484.097 606.101,484.362 606.548,484.618 607,484.866 607.457,485.105 607.918,485.334 608.384,485.555 608.854,485.767 609.328,485.969 609.806,486.162 610.288,486.346 610.773,486.521 611.261,486.686 611.753,486.841 612.247,486.987 612.744,487.123 613.244,487.25 613.746,487.367 614.25,487.474 614.756,487.571 615.264,487.658 615.774,487.736 616.285,487.803 616.797,487.861 617.311,487.908 617.825,487.946 618.34,487.973 618.855,487.991 619.37,487.998 619.886,487.996 620.401,487.983 620.916,487.961 621.43,487.928 621.944,487.886 622.457,487.833 622.969,487.771 623.479,487.698 623.988,487.616 624.495,487.524 625,487.422 625.503,487.31 626.004,487.188 626.503,487.057 626.999,486.915 627.492,486.765 627.982,486.605 628.468,486.435 628.952,486.256 629.431,486.067 629.907,485.869 630.379,485.662 630.847,485.446 631.311,485.221 631.77,484.986 632.225,484.743 632.674,484.491 633.119,484.231 633.559,483.961 633.993,483.684 634.422,483.398 634.845,483.103 635.262,482.801 635.674,482.49 636.079,482.171 636.478,481.845 636.87,481.511 637.256,481.169 637.636,480.82 638.008,480.464 638.373,480.1 638.732,479.729 639.083,479.352 639.426,478.968 639.762,478.577 640.091,478.179 640.411,477.776 640.724,477.366 641.028,476.95 641.325,476.528 641.613,476.101 641.893,475.668 642.164,475.23 642.427,474.786 642.681,474.338 642.926,473.884 643.163,473.426 643.39,472.964 643.609,472.497 643.818,472.026 644.018,471.551 644.209,471.072 644.391,470.589 644.563,470.103 644.726,469.614 644.879,469.122 645.022,468.627 645.156,468.129 645.28,467.629 645.394,467.126 645.499,466.621 645.594,466.115 645.679,465.606 645.754,465.096 645.819,464.585 645.874,464.072 645.919,463.559 645.954,463.045 645.979,462.53 645.994,462.014 645.999,461.499 " />
</svg>
